<svg width="77px" height="60px" viewBox="0 0 77 60" version="1.1" xmlns="http://www.w3.org/2000/svg" xmlns:xlink="http://www.w3.org/1999/xlink">
    <title>Group</title>
    <defs>
        <linearGradient x1="-0.170522006%" y1="50.0583563%" x2="99.8030706%" y2="50.0583563%" id="linearGradient-1">
            <stop stop-color="#1F00B0" offset="0%"></stop>
            <stop stop-color="#000067" offset="100%"></stop>
        </linearGradient>
        <linearGradient x1="0.333781255%" y1="50.0058182%" x2="100.317765%" y2="50.0058182%" id="linearGradient-2">
            <stop stop-color="#006EFF" offset="0%"></stop>
            <stop stop-color="#45CFF2" offset="100%"></stop>
        </linearGradient>
        <linearGradient x1="0.0473309866%" y1="49.8928027%" x2="100.145808%" y2="49.8928027%" id="linearGradient-3">
            <stop stop-color="#15009C" offset="0%"></stop>
            <stop stop-color="#3DA9EB" offset="76.25%"></stop>
        </linearGradient>
        <linearGradient x1="-0.0725498715%" y1="49.9354062%" x2="99.8729155%" y2="49.9354062%" id="linearGradient-4">
            <stop stop-color="#15009C" offset="0%"></stop>
            <stop stop-color="#3DA9EB" offset="100%"></stop>
        </linearGradient>
    </defs>
    <g id="hot" stroke="none" stroke-width="1" fill="none" fill-rule="evenodd">
        <g id="Artboard" transform="translate(-29.000000, -121.000000)" fill-rule="nonzero">
            <g id="Group" transform="translate(29.000000, 121.000000)">
                <path d="M72.5992682,31.0211487 C70.7132402,30.782312 69.4558883,28.9512307 69.4558883,27.0405372 L69.4558883,7.6151534 L11.3819449,7.6151534 C10.9104379,7.6151534 10.3603464,7.69476563 9.96742396,7.93360232 C8.55290302,8.49088792 7.60988905,9.92390804 7.60988905,11.5161526 L7.60988905,32.6930055 C7.60988905,34.603699 6.3525371,36.4347803 4.46650917,36.6736169 C2.18755875,36.9920659 0.222946321,35.2405968 0.222946321,32.9318422 L0.222946321,3.95299087 C0.222946321,1.80346069 1.95180526,0.0519916597 4.07358668,0.0519916597 L77,0.0519916597 L77,27.2793739 C76.842831,29.5881286 74.8782186,31.3395976 72.5992682,31.0211487 Z" id="Path" fill="url(#linearGradient-1)"></path>
                <path d="M23.719711,36.5143925 C23.0124505,36.5143925 22.30519,36.2755558 21.5979295,35.8774947 C3.5234952,23.3783747 0.222946321,5.30639877 0.0657773269,4.51027648 C-0.327145159,2.44035853 1.08737579,0.529665033 3.05198822,0.131603889 C4.23075567,-0.107232798 6.82404408,0.0519916597 6.82404408,0.0519916597 C6.82404408,0.0519916597 7.21696656,2.3607463 7.37413556,3.23648081 C7.37413556,3.39570527 10.3603464,19.0793144 25.7629079,29.6677408 C27.4917668,30.8619242 27.8846893,33.1706789 26.7059218,34.9221479 C26.0772459,35.9571069 24.8984784,36.5143925 23.719711,36.5143925 Z" id="Path" fill="url(#linearGradient-2)"></path>
                <path d="M23.4839575,60 C22.776697,60 22.0694365,59.7611633 21.362176,59.3631022 C3.28774171,46.8639822 0.301530818,34.4444745 0.144361824,33.6483522 C-0.248560662,31.5784343 1.16596029,29.6677408 3.13057271,29.2696797 C5.17376964,28.9512307 7.05979757,30.3046386 7.45272006,32.2949444 C7.53130455,32.533781 10.281762,42.4853096 25.5271544,53.0737361 C27.2560133,54.2679195 27.6489358,56.5766742 26.4701684,58.3281432 C25.8414924,59.3631022 24.6627249,60 23.4839575,60 Z" id="Path" fill="url(#linearGradient-3)"></path>
                <path d="M23.4839575,60 C22.8552815,60 22.148021,59.8407755 21.5979295,59.4427144 C20.4191621,58.7262043 19.7119016,57.5320209 19.7904861,56.178613 L20.1048241,32.6930055 C20.1048241,31.3395976 20.8120846,30.1454142 21.990852,29.5085163 L71.3419162,0.609277262 C72.5206837,-0.0276205692 77,0.0519916597 77,0.0519916597 C77,0.0519916597 77,2.44035853 77,3.79376642 L77,29.4289041 L25.3699854,59.4427144 C24.7413094,59.8407755 24.1126334,60 23.4839575,60 Z M27.4131823,34.9221479 L27.2560133,49.6504102 L69.3773038,25.1298438 L69.3773038,10.4015814 L27.4131823,34.9221479 Z" id="Shape" fill="url(#linearGradient-4)"></path>
            </g>
        </g>
    </g>
</svg>