<svg width="77" height="60" viewBox="0 0 77 60" fill="none" xmlns="http://www.w3.org/2000/svg">
	<path d="M72.5993 31.0212C70.7133 30.7823 69.4559 28.9512 69.4559 27.0405V7.61516H11.382C10.9105 7.61516 10.3604 7.69478 9.96744 7.93361C8.55292 8.4909 7.6099 9.92392 7.6099 11.5162V32.693C7.6099 34.6037 6.35255 36.4348 4.46652 36.6736C2.18757 36.9921 0.222961 35.2406 0.222961 32.9319V3.953C0.222961 1.80347 1.95182 0.052002 4.0736 0.052002H77V27.2794C76.8428 29.5881 74.8782 31.3396 72.5993 31.0212Z" fill="url(#paint0_linear)" />
	<path d="M23.7197 36.5144C23.0125 36.5144 22.3052 36.2756 21.5979 35.8775C3.52349 23.3784 0.222946 5.3064 0.0657773 4.51028C-0.327145 2.44036 1.08738 0.529665 3.05199 0.131604C4.23076 -0.107233 6.82404 0.0519917 6.82404 0.0519917C6.82404 0.0519917 7.21697 2.36075 7.37414 3.23648C7.37414 3.39571 10.3603 19.0793 25.7629 29.6677C27.4918 30.8619 27.8847 33.1707 26.7059 34.9221C26.0772 35.9571 24.8985 36.5144 23.7197 36.5144Z" fill="url(#paint1_linear)" />
	<path d="M23.484 60C22.7767 60 22.0695 59.7612 21.3622 59.3631C3.28777 46.864 0.30156 34.4445 0.144391 33.6484C-0.248532 31.5785 1.16599 29.6678 3.1306 29.2697C5.1738 28.9512 7.05983 30.3047 7.45275 32.295C7.53133 32.5338 10.2818 42.4853 25.5272 53.0737C27.256 54.2679 27.649 56.5767 26.4702 58.3282C25.8415 59.3631 24.6628 60 23.484 60Z" fill="url(#paint2_linear)" />
	<path d="M23.484 60C22.8553 60 22.148 59.8408 21.5979 59.4427C20.4192 58.7262 19.7119 57.532 19.7905 56.1786L20.1048 32.693C20.1048 31.3396 20.8121 30.1454 21.9908 29.5085L71.3419 0.609298C72.5207 -0.0275996 77 0.0520126 77 0.0520126C77 0.0520126 77 2.44038 77 3.79379V29.4289L25.37 59.4427C24.7413 59.8408 24.1126 60 23.484 60ZM27.4132 34.9222L27.256 49.6504L69.3773 25.1299V10.4016L27.4132 34.9222Z" fill="url(#paint3_linear)" />
	<defs>
		<linearGradient id="paint0_linear" x1="0.0920397" y1="18.4029" x2="76.8488" y2="18.4029" gradientUnits="userSpaceOnUse">
			<stop stop-color="#1F00B0" />
			<stop offset="1" stop-color="#000067" />
		</linearGradient>
		<linearGradient id="paint1_linear" x1="0.0913959" y1="18.2593" x2="27.469" y2="18.2593" gradientUnits="userSpaceOnUse">
			<stop stop-color="#006EFF" />
			<stop offset="1" stop-color="#45CFF2" />
		</linearGradient>
		<linearGradient id="paint2_linear" x1="0.0914247" y1="44.5786" x2="27.1857" y2="44.5786" gradientUnits="userSpaceOnUse">
			<stop stop-color="#15009C" />
			<stop offset="0.7625" stop-color="#3DA9EB" />
		</linearGradient>
		<linearGradient id="paint3_linear" x1="19.743" y1="29.9857" x2="76.9273" y2="29.9857" gradientUnits="userSpaceOnUse">
			<stop stop-color="#15009C" />
			<stop offset="1" stop-color="#3DA9EB" />
		</linearGradient>
	</defs>
</svg>
