<?xml version="1.0" encoding="UTF-8"?>
<svg width="431px" height="401px" viewBox="0 0 431 401" version="1.1" xmlns="http://www.w3.org/2000/svg" xmlns:xlink="http://www.w3.org/1999/xlink">
    <!-- Generator: Sketch Beta 57 (83077) - https://sketch.com -->
    <title>logo</title>
    <desc>Created with Sketch Beta.</desc>
    <g id="logo" stroke="none" stroke-width="1" fill="none" fill-rule="evenodd">
        <g>
            <path d="M10.7965432,151.794173 C6.65530864,151.794173 2.81135802,149.146272 1.47012346,144.998123 C-0.182222222,139.840593 2.6454321,134.323556 7.79604938,132.664296 L417.985679,0.739358025 C423.14321,-0.912987654 428.653333,1.91466667 430.312593,7.06528395 C431.971852,12.2159012 429.137284,17.7329383 423.986667,19.3921975 L13.8039506,151.324049 C12.8014815,151.642074 11.7920988,151.794173 10.7965432,151.794173" id="Fill-38" fill="#0094FF"></path>
            <path d="M10.7965432,337.694815 C6.6345679,337.694815 2.77679012,335.026173 1.4562963,330.843457 C-0.175308642,325.685926 2.68691358,320.182716 7.85135802,318.551111 L418.034074,189.025185 C423.191605,187.39358 428.694815,190.248889 430.333333,195.413333 C431.958025,200.577778 429.095802,206.080988 423.938272,207.712593 L13.748642,337.238519 C12.7669136,337.54963 11.7782716,337.694815 10.7965432,337.694815" id="Fill-21" fill="#7ED321"></path>
            <path d="M257.865778,400.953383 C255.625778,400.953383 253.378864,400.192889 251.539852,398.637333 C247.405531,395.139062 246.893926,388.958321 250.385284,384.824 L413.504296,192.038815 C417.002568,187.89758 423.183309,187.392889 427.31763,190.884247 C431.445037,194.382519 431.963556,200.563259 428.465284,204.69758 L265.353185,397.482765 C263.410469,399.77116 260.645037,400.953383 257.865778,400.953383" id="Fill-24" fill="#0094FF"></path>
            <path d="M420.986173,208.166123 C415.57284,208.166123 411.18963,203.776 411.18963,198.36958 L411.18963,10.0643951 C411.18963,4.65106173 415.57284,0.267851852 420.986173,0.267851852 C426.399506,0.267851852 430.782716,4.65106173 430.782716,10.0643951 L430.782716,198.36958 C430.782716,203.776 426.399506,208.166123 420.986173,208.166123" id="Fill-26" fill="#7ED321"></path>
            <path d="M257.883062,400.953383 C257.412938,400.953383 256.942815,400.918815 256.465778,400.849679 C91.3625679,376.928691 9.93441975,338.350914 6.54676543,336.719309 C1.67269136,334.375605 -0.366814815,328.526716 1.96997531,323.652642 C4.31367901,318.771654 10.1763951,316.725235 15.0435556,319.062025 C15.8524444,319.449185 97.5294815,358.026963 259.272691,381.457086 C264.630716,382.231407 268.343309,387.202272 267.568988,392.560296 C266.856889,397.441284 262.667259,400.953383 257.883062,400.953383" id="Fill-28" fill="#FF0000"></path>
            <path d="M257.869235,400.953383 C252.455901,400.953383 248.072691,396.563259 248.072691,391.15684 L248.072691,205.25758 C248.072691,199.85116 252.455901,195.461037 257.869235,195.461037 C263.282568,195.461037 267.665778,199.85116 267.665778,205.25758 L267.665778,391.15684 C267.665778,396.563259 263.282568,400.953383 257.869235,400.953383" id="Fill-30" fill="#9013FE"></path>
            <path d="M257.862321,215.353481 C255.643062,215.353481 253.416889,214.606815 251.577877,213.065086 C247.429728,209.594469 246.883556,203.413728 250.354173,199.26558 L413.473185,4.3302716 C416.936889,0.182123457 423.110716,-0.377876543 427.272691,3.1065679 C431.42084,6.57718519 431.973926,12.7579259 428.503309,16.9060741 L265.384296,211.841383 C263.448494,214.157432 260.662321,215.353481 257.862321,215.353481" id="Fill-32" fill="#FF00B8"></path>
            <path d="M10.8,337.694815 C5.38666667,337.694815 1.00345679,333.304691 1.00345679,327.898272 L1.00345679,141.992099 C1.00345679,136.585679 5.38666667,132.195556 10.8,132.195556 C16.2133333,132.195556 20.5965432,136.585679 20.5965432,141.992099 L20.5965432,327.898272 C20.5965432,333.304691 16.2133333,337.694815 10.8,337.694815" id="Fill-34" fill="#FF00B8"></path>
            <path d="M257.883062,215.353481 C257.412938,215.353481 256.942815,215.318914 256.465778,215.249778 C91.3418272,191.32879 9.90676543,152.453728 6.52602469,150.808296 C1.65195062,148.450765 -0.373728395,142.594963 1.98380247,137.720889 C4.34133333,132.853728 10.2178765,130.821136 15.0712099,133.178667 C15.8800988,133.565827 97.5502222,172.427062 259.272691,195.857185 C264.630716,196.631506 268.343309,201.60237 267.568988,206.960395 C266.856889,211.841383 262.667259,215.353481 257.883062,215.353481" id="Fill-36" fill="#FF0000"></path>
        </g>
    </g>
</svg>