<svg width="431" height="401" xmlns="http://www.w3.org/2000/svg"><g fill="none" fill-rule="evenodd"><path d="M10.8 151.8a9.81 9.81 0 0 1-3-19.14L417.99.74a9.8 9.8 0 0 1 6 18.65L13.8 151.32c-1 .32-2 .47-3 .47" fill="#0094FF"/><path d="M10.8 337.7a9.8 9.8 0 0 1-2.95-19.15l410.18-129.52a9.8 9.8 0 1 1 5.9 18.68L13.76 337.24c-.98.31-1.97.45-2.95.45" fill="#7ED321"/><path d="M257.87 400.95a9.8 9.8 0 0 1-7.48-16.13L413.5 192.04a9.8 9.8 0 1 1 14.97 12.66L265.35 397.48a9.8 9.8 0 0 1-7.48 3.47" fill="#0094FF"/><path d="M420.99 208.17a9.8 9.8 0 0 1-9.8-9.8V10.07a9.8 9.8 0 1 1 19.6 0v188.3a9.8 9.8 0 0 1-9.8 9.8" fill="#7ED321"/><path d="M257.88 400.95c-.47 0-.94-.03-1.41-.1-165.1-23.92-246.54-62.5-249.92-64.13a9.8 9.8 0 0 1 8.5-17.66c.8.39 82.48 38.97 244.22 62.4a9.8 9.8 0 0 1-1.39 19.5" fill="red"/><path d="M257.87 400.95a9.8 9.8 0 0 1-9.8-9.8v-185.9a9.8 9.8 0 0 1 19.6 0v185.9a9.8 9.8 0 0 1-9.8 9.8" fill="#9013FE"/><path d="M257.86 215.35a9.8 9.8 0 0 1-7.5-16.09L413.46 4.34a9.8 9.8 0 0 1 15.03 12.58L265.38 211.84a9.78 9.78 0 0 1-7.52 3.51M10.8 337.7a9.8 9.8 0 0 1-9.8-9.8V142a9.8 9.8 0 0 1 19.6 0v185.9a9.8 9.8 0 0 1-9.8 9.8" fill="#FF00B8"/><path d="M257.88 215.35c-.47 0-.94-.03-1.41-.1C91.34 191.33 9.9 152.45 6.53 150.81a9.79 9.79 0 1 1 8.54-17.63c.81.39 82.48 39.25 244.2 62.68a9.8 9.8 0 0 1-1.39 19.5" fill="red"/></g></svg>