<svg xmlns="http://www.w3.org/2000/svg" xmlns:xlink="http://www.w3.org/1999/xlink" width="1871" height="414">
	<defs>
		<path stroke-width="20" stroke-linecap="round" id="vertical" d="M10 147v191" />
		<path stroke-width="20" stroke-linecap="round" id="longDiagonal" d="M10 147l419 -135" />
		<path stroke-width="20" stroke-linecap="round" id="shortDiagonal" d="M429 12l-166 200" />
		<path stroke-width="20" stroke-linecap="round" id="curved" d="m 10 147 c104.77114,45.67527 252.04257,65.02746 253,65" />
	</defs>
	<path fill="currentColor"
		  d="M1866.44 51.4v33.05c-7.34-2.89-17.05-4.46-27.27-3.67-10.23.78-17.58 4.46-22.56 9.7-6.3 6.82-9.18 16.26-9.18 26.74v75.54h-35.93V51.14h31.47v19.41c3.68-6.3 8.66-11.8 15.22-15.74 7.6-4.72 16.25-6.82 24.65-7.34 7.6-.53 15.73.78 23.6 3.93M661.62 137.16c-4.72 15.73-12.06 30.16-27.8 42.75-16 12.58-35.14 16.78-56.12 16.78-27.8 0-51.92-11.01-67.4-30.94-15.2-19.67-21.76-42.49-21.76-67.4 0-25.97 6.02-49.31 21.5-67.93C526.82 9.97 550.44 0 577.7 0c21.77 0 40.39 4.46 55.86 17.04 17.05 13.64 25.18 29.64 29.38 47.74l-35.67 4.98a51.16 51.16 0 0 0-8.66-17.3c-9.43-12.6-22.28-18.63-38.55-18.89-16.26-.26-32 6.3-41.17 18.88-9.7 12.33-13.11 29.37-12.85 45.9.26 16.52 3.15 33.3 12.85 45.89 9.18 12.59 24.91 18.62 41.17 18.88 16.27.26 29.12-6.3 38.55-18.88a56.06 56.06 0 0 0 8.14-15.73l34.87 8.65zM768.8 92.31c-5.77-7.86-15.48-11.8-25.97-11.8-10.49 0-20.2 3.94-25.97 11.8-6.03 7.87-7.86 18.89-7.86 29.64s1.83 21.5 7.86 29.37c5.78 7.87 15.48 12.07 25.97 12.07 10.49 0 20.2-4.2 25.96-12.07 6.04-7.87 8.13-18.62 8.13-29.37s-2.1-21.77-8.13-29.64m-80.24 80.78c-12.08-14.69-17.32-31.74-17.32-51.14 0-19.94 6.03-37.5 17.32-51.14 13.1-15.48 33.56-23.6 54.28-23.6 20.98 0 41.17 7.86 54.29 23.6 12.58 14.94 17.57 32 17.57 51.14 0 20.19-5.5 36.19-17.57 51.14-13.38 15.73-33.05 23.6-54.29 23.6-20.98 0-41.18-8.13-54.28-23.6m277.63-48.78v68.44h-36.2V125.9c0-14.7-2.1-29.38-9.44-37.25-4.98-5.5-12.58-8.39-22.29-8.13-6.55.27-12.06 2.1-16.78 5.5-5.25 3.95-8.92 10.24-10.5 18.1-1.3 6.3-1.57 17.32-1.57 27.02v61.62h-35.92V51.15h31.47v14.68a15 15 0 0 0 1.83-2.1c9.18-11.02 23.6-15.74 36.46-16.53 16.78-1.04 33.83 1.84 47.46 15.21 15.48 15.22 15.48 39.87 15.48 61.9m68.09 6.29c0 11.02-.53 20.2 2.88 25.44 3.4 5.5 9.44 7.6 14.95 8.13 6.81.52 15.47 0 23.07-1.05v29.64c-11.01 3.14-30.94 2.89-41.43 1.05-13.12-2.36-21.24-6.56-28.85-17.84-7.87-11.53-6.3-26.22-6.3-43.27V78.67h-24.12V51.14h24.13V11.8h35.67v39.34h40.9v27.53h-40.9v51.93zm92.47-40.9c-3.67 4.71-5.5 9.44-6.82 14.68h63.2c-.52-5.77-2.1-11.02-5.76-15.74-5.51-7.08-15.21-10.49-24.92-10.49-9.18 0-18.62 2.62-25.7 11.54m-.26 61.63c5.76 7.87 15.47 12.06 25.96 12.06 8.4 0 14.95-2.1 20.2-6.29 5.24-4.2 7.6-8.13 9.18-11.54l35.66 10.23a65.9 65.9 0 0 1-24.65 29.64 73.31 73.31 0 0 1-38.29 11.27c-21.5 0-43.53-8.13-56.39-23.6-11.53-14.17-17.3-31.2-17.3-49.3 0-20.46 6.03-39.35 17.3-52.98 13.12-15.47 33.31-23.6 54.29-23.6 20.98 0 37.5 6.81 50.62 22.29 14.16 16.52 17.57 37.77 15.73 62.41h-99.65c1.05 7.08 3.14 13.9 7.34 19.41m315.13-44.84v86.28h-36.19V109.1c0-10.23-1.83-16.53-6.82-22.03-4.46-4.99-11.27-7.6-18.09-7.6s-13.64 2.88-18.1 7.86c-5.5 6.3-6.55 12.6-6.55 19.67v85.76h-36.2V109.1c0-10.23-1.83-16.53-6.81-22.03-4.46-4.99-11.28-7.6-18.1-7.6-6.82 0-13.64 2.88-18.1 7.86-5.5 6.3-6.56 12.6-6.56 19.67v85.76h-35.92V51.14h31.47v15.21c9.96-11.8 25.17-18.62 40.9-18.62 11.81 0 26.76 3.67 35.68 13.11 2.62 2.89 4.98 5.77 6.56 8.66 9.96-13.64 26.22-21.77 43.53-21.77 11.8 0 26.75 3.67 35.66 13.11 12.34 12.85 13.64 27.54 13.64 45.64m123.96 15.47c0-12.07-2.63-23.08-7.61-30.42-6.04-9.18-15.21-12.6-27.01-12.6-9.7 0-18.1 3.15-23.87 9.98-6.81 7.86-9.96 20.2-9.96 33.04 0 12.85 3.15 25.44 9.96 33.04 6.3 6.82 14.95 9.97 25.18 9.97 9.96 0 20.2-3.41 26.23-12.6 4.98-7.34 7.08-18.35 7.08-30.41m37.76 0c0 19.4-4.46 37.5-16.52 52.19-11.55 14.42-30.16 22.55-48.78 22.55-15.74 0-29.9-4.2-40.9-12.59v8.66h-31.49V3.93h35.93v52.98a67.31 67.31 0 0 1 34.62-9.7c19.68 0 38.56 7.6 50.62 22.55 11.01 13.9 16.52 32.52 16.52 52.19m56.81-32.25c-3.67 4.71-5.5 9.44-6.81 14.68h63.2c-.52-5.77-2.1-11.02-5.77-15.74-5.51-7.08-15.21-10.49-24.92-10.49-9.17 0-18.62 2.62-25.7 11.54m-.26 61.63c5.77 7.87 15.47 12.06 25.96 12.06 8.4 0 14.95-2.1 20.2-6.29 5.24-4.2 7.6-8.13 9.18-11.54l35.66 10.23a65.9 65.9 0 0 1-24.65 29.64 73.31 73.31 0 0 1-38.29 11.27c-21.5 0-43.53-8.13-56.38-23.6-11.54-14.17-17.3-31.2-17.3-49.3 0-20.46 6.02-39.35 17.3-52.98 13.11-15.47 33.3-23.6 54.28-23.6 20.98 0 37.5 6.81 50.62 22.29 14.16 16.52 17.57 37.77 15.73 62.41h-99.65c1.05 7.08 3.14 13.9 7.34 19.41" />
	<use xlink:href="#longDiagonal" stroke="#7ed321" transform="translate(0 191)" />
	<use xlink:href="#shortDiagonal" stroke="#0094ff" transform="translate(0 191)" />
	<use xlink:href="#curved" stroke="red" transform="translate(0 191)" />

	<use xlink:href="#vertical" stroke="#7ed321" transform="translate(419 -135)" />
	<use xlink:href="#vertical" stroke="#ff00b8" />
	<use xlink:href="#vertical" stroke="#9013fe" transform="translate(253 65) "/>

	<use xlink:href="#longDiagonal" stroke="#0094ff" />
	<use xlink:href="#shortDiagonal" stroke="#ff00b8" />
	<use xlink:href="#curved" stroke="red" />
</svg>
