<?xml version="1.0" encoding="UTF-8"?>
<svg width="1440px" height="78px" viewBox="0 0 1440 78" version="1.1" xmlns="http://www.w3.org/2000/svg" xmlns:xlink="http://www.w3.org/1999/xlink">
    <!-- Generator: Sketch Beta 63 (92437) - https://sketch.com -->
    <title>lista</title>
    <desc>Created with Sketch Beta.</desc>
    <defs>
        <rect id="path-1" x="0" y="0" width="1440" height="78"></rect>
        <filter x="-0.0%" y="-0.6%" width="100.1%" height="101.3%" filterUnits="objectBoundingBox" id="filter-2">
            <feOffset dx="0" dy="-1" in="SourceAlpha" result="shadowOffsetInner1"></feOffset>
            <feComposite in="shadowOffsetInner1" in2="SourceAlpha" operator="arithmetic" k2="-1" k3="1" result="shadowInnerInner1"></feComposite>
            <feColorMatrix values="0 0 0 0 0.88627451   0 0 0 0 0.88627451   0 0 0 0 0.917647059  0 0 0 1 0" type="matrix" in="shadowInnerInner1"></feColorMatrix>
        </filter>
        <polygon id="path-3" points="0 0.141064975 31.3523531 0.141064975 31.3523531 11.019751 0 11.019751"></polygon>
        <polygon id="path-5" points="0 0.0220332277 31.3522282 0.0220332277 31.3522282 11.0756312 0 11.0756312"></polygon>
    </defs>
    <g id="Page-1" stroke="none" stroke-width="1" fill="none" fill-rule="evenodd">
        <g id="01-wysiwyg-copy">
            <g id="lista" transform="translate(0.000000, 0.000000)">
                <g id="Group-13" transform="translate(0.000000, -0.000000)">
                    <g id="Shape">
                        <use fill="#FFFFFF" fill-rule="evenodd" xlink:href="#path-1"></use>
                        <use fill="black" fill-opacity="1" filter="url(#filter-2)" xlink:href="#path-1"></use>
                    </g>
                    <g id="Group-4" transform="translate(31.000000, 25.000000)">
                        <g id="Group-23" transform="translate(0.000000, 13.617021)">
                            <mask id="mask-4" fill="white">
                                <use xlink:href="#path-3"></use>
                            </mask>
                            <g id="Clip-22"></g>
                            <path d="M0.71464145,11.019751 C0.411032309,11.019751 0.129613869,10.825078 0.033286052,10.5199559 C-0.0857368006,10.1437226 0.123057526,9.74227266 0.499795114,9.6232498 L30.4219385,0.174550039 C30.7981718,0.0555271868 31.1996217,0.263817179 31.3191489,0.640554768 C31.4376675,1.01729236 31.2288731,1.41874232 30.8526399,1.53776517 L0.92999212,10.9864649 C0.858376675,11.00916 0.786256895,11.019751 0.71464145,11.019751" id="Fill-21" fill="#7ED321" mask="url(#mask-4)"></path>
                        </g>
                        <path d="M18.7379291,29.251379 C18.5745248,29.251379 18.4106162,29.1959023 18.2764634,29.0824271 C17.9748716,28.827234 17.9375508,28.3763593 18.1922396,28.0747675 L30.0914988,14.0114106 C30.3466919,13.7093144 30.7975666,13.672498 31.0991584,13.9271868 C31.4002459,14.1823798 31.4380709,14.6332545 31.1828779,14.9348463 L19.2841229,28.9982033 C19.142405,29.1651379 18.9406714,29.251379 18.7379291,29.251379" id="Fill-24" fill="#0094FF"></path>
                        <path d="M30.6372892,15.1878708 C30.2423956,15.1878708 29.9226478,14.8676186 29.9226478,14.4732293 L29.9226478,0.736680851 C29.9226478,0.341787234 30.2423956,0.0220394011 30.6372892,0.0220394011 C31.0321828,0.0220394011 31.3519307,0.341787234 31.3519307,0.736680851 L31.3519307,14.4732293 C31.3519307,14.8676186 31.0321828,15.1878708 30.6372892,15.1878708" id="Fill-26" fill="#7ED321"></path>
                        <path d="M18.7391899,29.251379 C18.7048952,29.251379 18.6706005,29.2488574 18.6358014,29.243814 C6.59179827,27.498818 0.651750985,24.6846336 0.404627266,24.5656107 C0.04907171,24.3946414 -0.0997068558,23.9679748 0.0707580772,23.6124192 C0.241727344,23.2563593 0.669402679,23.1070764 1.0244539,23.2775414 C1.08346099,23.3057841 7.0416643,26.1199685 18.8405611,27.8291568 C19.23142,27.8856422 19.5022474,28.2482585 19.445762,28.6391174 C19.3938156,28.9951773 19.0881891,29.251379 18.7391899,29.251379" id="Fill-28" fill="#FF0000"></path>
                        <path d="M18.7381812,29.251379 C18.3432876,29.251379 18.0235398,28.9311269 18.0235398,28.5367376 L18.0235398,14.9756974 C18.0235398,14.5813081 18.3432876,14.2610559 18.7381812,14.2610559 C19.1330749,14.2610559 19.4528227,14.5813081 19.4528227,14.9756974 L19.4528227,28.5367376 C19.4528227,28.9311269 19.1330749,29.251379 18.7381812,29.251379" id="Fill-30" fill="#9013FE"></path>
                        <path d="M18.7376769,15.7121765 C18.5757857,15.7121765 18.4133901,15.6577084 18.2792372,15.5452419 C17.9766367,15.2920662 17.9367943,14.8411915 18.1899701,14.538591 L30.0892293,0.318386131 C30.3419007,0.015785658 30.7922711,-0.0250654058 31.0958802,0.229118991 C31.3984807,0.48229472 31.4388274,0.933169425 31.1856517,1.2357699 L19.2863924,15.4559748 C19.1451789,15.6249267 18.9419322,15.7121765 18.7376769,15.7121765" id="Fill-32" fill="#FF00B8"></path>
                        <path d="M0.714893617,24.6367723 C0.32,24.6367723 0.000252167061,24.3165201 0.000252167061,23.9221308 L0.000252167061,10.3605863 C0.000252167061,9.96619701 0.32,9.64594484 0.714893617,9.64594484 C1.10978723,9.64594484 1.42953507,9.96619701 1.42953507,10.3605863 L1.42953507,23.9221308 C1.42953507,24.3165201 1.10978723,24.6367723 0.714893617,24.6367723" id="Fill-34" fill="#FF00B8"></path>
                        <path d="M18.7391899,15.7121765 C18.7048952,15.7121765 18.6706005,15.7096548 18.6358014,15.7046115 C6.59028526,13.9596154 0.649733649,11.1237447 0.403114263,11.0037132 C0.0475587076,10.8317352 -0.10021119,10.4045642 0.0717667455,10.0490087 C0.243744681,9.69395745 0.672428684,9.54568322 1.02647124,9.71766115 C1.08547833,9.74590386 7.0431773,12.580766 18.8405611,14.2899543 C19.23142,14.3464397 19.5022474,14.7090559 19.445762,15.0999149 C19.3938156,15.4559748 19.0881891,15.7121765 18.7391899,15.7121765" id="Fill-36" fill="#FF0000"></path>
                        <g id="Group-40">
                            <mask id="mask-6" fill="white">
                                <use xlink:href="#path-5"></use>
                            </mask>
                            <g id="Clip-39"></g>
                            <path d="M0.71464145,11.0756312 C0.412545311,11.0756312 0.13213554,10.8824712 0.0342947203,10.5798708 C-0.0862411348,10.2036375 0.120031521,9.80117888 0.495760441,9.68013869 L30.4184082,0.0564349882 C30.7946414,-0.0641008668 31.1965957,0.142171789 31.3176359,0.517900709 C31.4386761,0.89362963 31.2318991,1.29608826 30.8561702,1.41712845 L0.934026793,11.0413365 C0.860898345,11.0645359 0.787265563,11.0756312 0.71464145,11.0756312" id="Fill-38" fill="#0094FF" mask="url(#mask-6)"></path>
                        </g>
                    </g>
                    <g id="Component/icon/ic_Dropdown" transform="translate(1405.000000, 32.500000)" fill="#92929D">
                        <path d="M5.47901419,3.98321135 L10.8452903,8.27623226 C11.0609213,8.44873704 11.095882,8.76338322 10.9233772,8.97901419 C10.9003113,9.00784654 10.8741227,9.03403519 10.8452903,9.05710107 L5.47901419,13.350122 C5.26338322,13.5226268 4.94873704,13.4876661 4.77623226,13.2720351 C4.70530704,13.1833786 4.66666667,13.0732233 4.66666667,12.9596876 L4.66666667,4.37364576 C4.66666667,4.09750338 4.89052429,3.87364576 5.16666667,3.87364576 C5.28020241,3.87364576 5.39035767,3.91228613 5.47901419,3.98321135 Z" id="Rectangle" transform="translate(8.000000, 8.666667) rotate(-270.000000) translate(-8.000000, -8.666667) "></path>
                    </g>
                    <text id="Superadministr치tor" font-family="Roboto-Regular, Roboto" font-size="12" font-weight="normal" line-spacing="12" letter-spacing="0.100000001" fill="#92929D">
                        <tspan x="1289" y="55">Superadministr치tor</tspan>
                    </text>
                    <text id="Honza-Sl치dek" font-family="Poppins-SemiBold, Poppins" font-size="14" font-weight="500" line-spacing="14" letter-spacing="0.100000001" fill="#171725">
                        <tspan x="1289" y="40">Honza Sl치dek</tspan>
                    </text>
                    <text id="Hranipex" font-family="Poppins-SemiBold, Poppins" font-size="20" font-weight="500" fill="#44444F">
                        <tspan x="115" y="45">Hranipex</tspan>
                    </text>
                    <line x1="92.5" y1="16.5" x2="92.5" y2="59.5" id="Line-5" stroke="#E5E5EC" stroke-linecap="square"></line>
                    <text id="Site:" font-family="Manrope-Regular, Manrope" font-size="12" font-weight="normal" letter-spacing="0.171428574" fill="#171725">
                        <tspan x="292" y="46">Site:</tspan>
                    </text>
                    <text id="CZ" font-family="Manrope-Semibold, Manrope" font-size="12" font-weight="500" letter-spacing="0.171428574" fill="#000000">
                        <tspan x="330" y="46">CZ</tspan>
                    </text>
                    <text id="Language:" font-family="Manrope-Regular, Manrope" font-size="12" font-weight="normal" letter-spacing="0.171428574" fill="#171725">
                        <tspan x="401" y="46">Language:</tspan>
                    </text>
                    <text id="CZ" font-family="Manrope-Semibold, Manrope" font-size="12" font-weight="500" letter-spacing="0.171428574" fill="#000000">
                        <tspan x="474" y="46">CZ</tspan>
                    </text>
                    <text id="EN" font-family="Manrope-Semibold, Manrope" font-size="12" font-weight="500" letter-spacing="0.171428574" fill="#000000">
                        <tspan x="502" y="46">EN</tspan>
                    </text>
                    <g id="Component/icon/ic_Chevron-Down" transform="translate(534.000000, 39.000000)" fill="#000000" fill-opacity="0.2">
                        <path d="M6,4.58578644 L10.2928932,0.292893219 C10.6834175,-0.0976310729 11.3165825,-0.0976310729 11.7071068,0.292893219 C12.0976311,0.683417511 12.0976311,1.31658249 11.7071068,1.70710678 L6.70710678,6.70710678 C6.31658249,7.09763107 5.68341751,7.09763107 5.29289322,6.70710678 L0.292893219,1.70710678 C-0.0976310729,1.31658249 -0.0976310729,0.683417511 0.292893219,0.292893219 C0.683417511,-0.0976310729 1.31658249,-0.0976310729 1.70710678,0.292893219 L6,4.58578644 Z" id="Shape"></path>
                    </g>
                    <g id="Component/icon/ic_Chevron-Down-Copy" transform="translate(358.000000, 39.000000)" fill="#000000" fill-opacity="0.2">
                        <path d="M6,4.58578644 L10.2928932,0.292893219 C10.6834175,-0.0976310729 11.3165825,-0.0976310729 11.7071068,0.292893219 C12.0976311,0.683417511 12.0976311,1.31658249 11.7071068,1.70710678 L6.70710678,6.70710678 C6.31658249,7.09763107 5.68341751,7.09763107 5.29289322,6.70710678 L0.292893219,1.70710678 C-0.0976310729,1.31658249 -0.0976310729,0.683417511 0.292893219,0.292893219 C0.683417511,-0.0976310729 1.31658249,-0.0976310729 1.70710678,0.292893219 L6,4.58578644 Z" id="Shape"></path>
                    </g>
                    <line x1="386" y1="27.5" x2="386" y2="53.5" id="Line-6" stroke="#000000" opacity="0.1" stroke-linecap="square"></line>
                </g>
            </g>
        </g>
    </g>
</svg>