<svg width="100%" height="100%" viewBox="0 0 455 66" version="1.1" xmlns="http://www.w3.org/2000/svg" xmlns:xlink="http://www.w3.org/1999/xlink" xml:space="preserve" xmlns:serif="http://www.serif.com/" style="fill-rule:evenodd;clip-rule:evenodd;stroke-linejoin:round;stroke-miterlimit:2;">
    <g transform="matrix(0.969671,0,0,0.84878,-26.0245,-19.6792)">
        <rect id="Artboard1" x="26.838" y="23.185" width="468.536" height="77.608" style="fill:none;"/>
        <g id="Artboard11" serif:id="Artboard1">
            <g transform="matrix(1.03128,0,0,1.17816,-7.95771,-13.3743)">
                <path d="M122.861,62.824C122.861,48.249 134.381,37.252 149.947,37.252C154.626,37.252 159.999,38.792 164.186,41.597L164.186,52.457C160.419,48.742 155.249,46.644 150.297,46.644C140.174,46.644 133.333,53.509 133.333,62.824C133.333,72.138 140.174,78.867 150.297,78.867C155.254,78.867 160.419,76.763 164.186,73.053L164.186,83.913C159.999,86.713 154.621,88.258 149.947,88.258C134.381,88.252 122.861,77.321 122.861,62.824Z" style="fill:rgb(255,255,250);fill-rule:nonzero;"/>
            </g>
            <g transform="matrix(1.03128,0,0,1.17816,-7.95771,-13.3743)">
                <path d="M168.44,69.618C168.44,58.972 176.815,50.912 187.707,50.912C198.6,50.912 206.975,58.966 206.975,69.618C206.975,80.269 198.529,88.252 187.707,88.252C176.886,88.252 168.44,80.127 168.44,69.618ZM187.707,79.354C193.014,79.354 197.06,75.223 197.06,69.618C197.06,64.013 193.009,59.81 187.707,59.81C182.406,59.81 178.355,64.013 178.355,69.618C178.355,75.223 182.406,79.354 187.707,79.354Z" style="fill:rgb(255,255,250);fill-rule:nonzero;"/>
            </g>
            <g transform="matrix(1.03128,0,0,1.17816,-7.95771,-13.3743)">
                <path d="M247.11,67.585L247.11,87.409L237.337,87.409L237.337,67.936C237.337,63.032 234.405,59.81 229.939,59.81C225.473,59.81 222.541,63.032 222.541,67.936L222.541,87.409L212.768,87.409L212.768,67.585C212.768,57.498 219.538,50.912 229.939,50.912C240.34,50.912 247.11,57.498 247.11,67.585Z" style="fill:rgb(255,255,250);fill-rule:nonzero;"/>
            </g>
            <g transform="matrix(1.03128,0,0,1.17816,-7.95771,-13.3743)">
                <path d="M266.585,42.156L266.585,51.756L278.313,51.756L278.313,59.881L266.585,59.881L266.585,72.56C266.585,77.606 269.446,79.705 272.52,79.705C275.032,79.705 276.779,79.004 278.313,78.165L278.313,86.713C275.802,87.765 273.077,88.252 270.773,88.252C262.813,88.252 256.741,83.42 256.741,73.119L256.741,59.881L251.02,59.881L251.02,51.756L256.741,51.756L256.741,42.156L266.585,42.156Z" style="fill:rgb(255,255,250);fill-rule:nonzero;"/>
            </g>
            <g transform="matrix(1.03128,0,0,1.17816,-7.95771,-13.3743)">
                <path d="M281.316,69.618C281.316,59.18 288.578,50.983 299.257,50.983C310.635,50.983 316.849,60.161 315.243,71.65L289.975,71.65C290.953,76.834 295.211,80.269 301.91,80.269C306.377,80.269 310.706,78.516 314.059,75.645L314.059,83.979C311.198,86.499 306.448,88.252 300.24,88.252C288.932,88.252 281.322,80.757 281.322,69.618L281.316,69.618ZM305.885,65.136C305.607,61.213 302.604,58.342 298.487,58.342C294.37,58.342 291.368,60.654 290.248,65.136L305.885,65.136Z" style="fill:rgb(255,255,250);fill-rule:nonzero;"/>
            </g>
            <g transform="matrix(1.03128,0,0,1.17816,-7.95771,-13.3743)">
                <path d="M331.852,68.144L331.852,87.409L322.079,87.409L322.079,51.756L331.852,51.756L331.852,57.218C333.878,53.153 337.994,50.912 341.625,50.912C346.719,50.912 350.279,53.01 352.234,57.005C355.024,53.01 358.867,50.912 363.819,50.912C371.709,50.912 376.382,56.517 376.382,66.675L376.382,87.409L366.609,87.409L366.609,67.514C366.609,62.752 364.305,59.81 360.675,59.81C356.694,59.81 354.112,63.032 354.112,68.144L354.112,87.409L344.339,87.409L344.339,67.514C344.339,62.752 342.035,59.81 338.475,59.81C334.424,59.81 331.841,63.032 331.841,68.144L331.852,68.144Z" style="fill:rgb(255,255,250);fill-rule:nonzero;"/>
            </g>
            <g transform="matrix(1.03128,0,0,1.17816,-7.95771,-13.3743)">
                <path d="M394.187,82.017L394.187,87.409L384.414,87.409L384.414,38.091L394.187,38.091L394.187,57.147C396.349,53.153 400.4,50.912 405.565,50.912C415.196,50.912 422.807,58.829 422.807,69.618C422.807,80.406 415.196,88.252 405.565,88.252C400.4,88.252 396.349,86.011 394.187,82.017ZM403.54,79.354C408.847,79.354 412.892,75.223 412.892,69.618C412.892,64.013 408.841,59.81 403.54,59.81C398.238,59.81 394.187,64.013 394.187,69.618C394.187,75.223 398.238,79.354 403.54,79.354Z" style="fill:rgb(255,255,250);fill-rule:nonzero;"/>
            </g>
            <g transform="matrix(1.03128,0,0,1.17816,-7.95771,-13.3743)">
                <path d="M427.131,69.618C427.131,59.18 434.393,50.983 445.072,50.983C456.451,50.983 462.664,60.161 461.059,71.65L435.791,71.65C436.768,76.834 441.027,80.269 447.726,80.269C452.192,80.269 456.522,78.516 459.874,75.645L459.874,83.979C457.013,86.499 452.263,88.252 446.055,88.252C434.748,88.252 427.137,80.757 427.137,69.618L427.131,69.618ZM451.701,65.136C451.422,61.213 448.419,58.342 444.303,58.342C440.186,58.342 437.183,60.654 436.064,65.136L451.701,65.136Z" style="fill:rgb(255,255,250);fill-rule:nonzero;"/>
            </g>
            <g transform="matrix(1.03128,0,0,1.17816,-7.95771,-13.3743)">
                <path d="M483.531,60.09C479.415,60.09 477.182,63.382 477.182,69.125L477.182,87.409L467.409,87.409L467.409,67.514C467.409,57.355 471.667,50.912 481.719,50.912C483.182,50.912 486.534,51.263 487.861,51.75L487.861,61.065C487.162,60.577 484.509,60.084 483.531,60.084L483.531,60.09Z" style="fill:rgb(255,255,250);fill-rule:nonzero;"/>
            </g>
            <g transform="matrix(1.03128,0,0,1.17816,-7.95771,-13.3743)">
                <path d="M92.716,67.936L87.9,64L81.73,69.108C76.98,73.044 72.699,77.572 68.986,82.577L65.349,87.491L61.571,82.475C57.498,77.06 52.813,72.179 47.615,67.936L42.799,64L45.66,61.668C52.158,56.367 58.011,50.269 63.1,43.501L65.338,40.52L67.075,42.818C72.502,50.03 78.749,56.537 85.683,62.203L87.889,64.011L90.75,61.679C92.563,60.201 94.332,58.642 96.047,57.038C92.978,42.295 80.409,31.26 65.349,31.26C47.997,31.26 33.92,45.924 33.92,64C33.92,82.077 47.997,96.74 65.349,96.74C80.452,96.74 93.066,85.637 96.08,70.848C94.977,69.847 93.863,68.869 92.705,67.936L92.716,67.936Z" style="fill:rgb(255,255,250);fill-rule:nonzero;"/>
            </g>
        </g>
    </g>
</svg>
