<svg width="100%" height="100%" viewBox="0 0 456 67" version="1.1" xmlns="http://www.w3.org/2000/svg" xmlns:xlink="http://www.w3.org/1999/xlink" xml:space="preserve" xmlns:serif="http://www.serif.com/" style="fill-rule:evenodd;clip-rule:evenodd;stroke-linejoin:round;stroke-miterlimit:2;">
    <g transform="matrix(0.967623,0,0,0.786206,-23.9459,-16.4688)">
        <rect id="contember-horizontal-blue" x="24.747" y="20.947" width="470.807" height="84.052" style="fill:none;"/>
        <g id="contember-horizontal-blue1" serif:id="contember-horizontal-blue">
            <g transform="matrix(1.03346,0,0,1.27193,-9.10799,-17.0889)">
                <path d="M91.716,66.936L86.9,63L80.73,68.108C75.98,72.044 71.699,76.572 67.986,81.577L64.349,86.491L60.571,81.475C56.498,76.06 51.813,71.179 46.615,66.936L41.799,63L44.66,60.668C51.158,55.367 57.011,49.269 62.1,42.501L64.338,39.52L66.075,41.818C71.502,49.03 77.749,55.537 84.683,61.203L86.889,63.011L89.75,60.679C91.563,59.201 93.332,57.642 95.047,56.038C91.978,41.295 79.409,30.26 64.349,30.26C46.997,30.26 32.92,44.924 32.92,63C32.92,81.077 46.997,95.74 64.349,95.74C79.452,95.74 92.066,84.637 95.08,69.848C93.977,68.847 92.863,67.869 91.705,66.936L91.716,66.936Z" style="fill:rgb(0,24,47);fill-rule:nonzero;"/>
            </g>
            <g transform="matrix(1.03346,0,0,1.27193,-9.10799,-17.0889)">
                <path d="M122.985,62.825C122.985,48.25 134.505,37.253 150.071,37.253C154.75,37.253 160.123,38.793 164.31,41.598L164.31,52.458C160.543,48.743 155.373,46.645 150.421,46.645C140.298,46.645 133.457,53.51 133.457,62.825C133.457,72.139 140.298,78.868 150.421,78.868C155.378,78.868 160.543,76.763 164.31,73.054L164.31,83.914C160.123,86.714 154.745,88.259 150.071,88.259C134.505,88.253 122.985,77.322 122.985,62.825Z" style="fill:rgb(0,24,47);fill-rule:nonzero;"/>
            </g>
            <g transform="matrix(1.03346,0,0,1.27193,-9.10799,-17.0889)">
                <path d="M168.564,69.619C168.564,58.973 176.939,50.913 187.831,50.913C198.724,50.913 207.099,58.967 207.099,69.619C207.099,80.27 198.653,88.253 187.831,88.253C177.01,88.253 168.564,80.128 168.564,69.619ZM187.831,79.355C193.138,79.355 197.184,75.224 197.184,69.619C197.184,64.013 193.133,59.811 187.831,59.811C182.53,59.811 178.479,64.013 178.479,69.619C178.479,75.224 182.53,79.355 187.831,79.355Z" style="fill:rgb(0,24,47);fill-rule:nonzero;"/>
            </g>
            <g transform="matrix(1.03346,0,0,1.27193,-9.10799,-17.0889)">
                <path d="M247.234,67.586L247.234,87.409L237.461,87.409L237.461,67.937C237.461,63.033 234.529,59.811 230.063,59.811C225.597,59.811 222.665,63.033 222.665,67.937L222.665,87.409L212.892,87.409L212.892,67.586C212.892,57.499 219.662,50.913 230.063,50.913C240.464,50.913 247.234,57.499 247.234,67.586Z" style="fill:rgb(0,24,47);fill-rule:nonzero;"/>
            </g>
            <g transform="matrix(1.03346,0,0,1.27193,-9.10799,-17.0889)">
                <path d="M266.71,42.157L266.71,51.757L278.437,51.757L278.437,59.882L266.71,59.882L266.71,72.561C266.71,77.607 269.57,79.706 272.644,79.706C275.156,79.706 276.903,79.005 278.437,78.166L278.437,86.714C275.926,87.766 273.201,88.253 270.897,88.253C262.937,88.253 256.865,83.421 256.865,73.12L256.865,59.882L251.144,59.882L251.144,51.757L256.865,51.757L256.865,42.157L266.71,42.157Z" style="fill:rgb(0,24,47);fill-rule:nonzero;"/>
            </g>
            <g transform="matrix(1.03346,0,0,1.27193,-9.10799,-17.0889)">
                <path d="M281.44,69.619C281.44,59.181 288.702,50.984 299.381,50.984C310.759,50.984 316.973,60.162 315.367,71.651L290.099,71.651C291.077,76.835 295.335,80.27 302.035,80.27C306.501,80.27 310.83,78.517 314.183,75.646L314.183,83.98C311.322,86.5 306.572,88.253 300.364,88.253C289.057,88.253 281.446,80.758 281.446,69.619L281.44,69.619ZM306.009,65.137C305.731,61.214 302.728,58.343 298.611,58.343C294.495,58.343 291.492,60.655 290.372,65.137L306.009,65.137Z" style="fill:rgb(0,24,47);fill-rule:nonzero;"/>
            </g>
            <g transform="matrix(1.03346,0,0,1.27193,-9.10799,-17.0889)">
                <path d="M331.976,68.145L331.976,87.409L322.203,87.409L322.203,51.757L331.976,51.757L331.976,57.219C334.002,53.154 338.118,50.913 341.749,50.913C346.843,50.913 350.403,53.011 352.358,57.006C355.148,53.011 358.991,50.913 363.943,50.913C371.833,50.913 376.507,56.518 376.507,66.676L376.507,87.409L366.733,87.409L366.733,67.515C366.733,62.753 364.429,59.811 360.799,59.811C356.818,59.811 354.236,63.033 354.236,68.145L354.236,87.409L344.463,87.409L344.463,67.515C344.463,62.753 342.159,59.811 338.599,59.811C334.548,59.811 331.965,63.033 331.965,68.145L331.976,68.145Z" style="fill:rgb(0,24,47);fill-rule:nonzero;"/>
            </g>
            <g transform="matrix(1.03346,0,0,1.27193,-9.10799,-17.0889)">
                <path d="M394.311,82.018L394.311,87.409L384.538,87.409L384.538,38.092L394.311,38.092L394.311,57.148C396.473,53.154 400.524,50.913 405.689,50.913C415.32,50.913 422.931,58.83 422.931,69.619C422.931,80.407 415.32,88.253 405.689,88.253C400.524,88.253 396.473,86.012 394.311,82.018ZM403.664,79.355C408.971,79.355 413.016,75.224 413.016,69.619C413.016,64.013 408.965,59.811 403.664,59.811C398.362,59.811 394.311,64.013 394.311,69.619C394.311,75.224 398.362,79.355 403.664,79.355Z" style="fill:rgb(0,24,47);fill-rule:nonzero;"/>
            </g>
            <g transform="matrix(1.03346,0,0,1.27193,-9.10799,-17.0889)">
                <path d="M427.255,69.619C427.255,59.181 434.517,50.984 445.196,50.984C456.575,50.984 462.788,60.162 461.183,71.651L435.915,71.651C436.892,76.835 441.151,80.27 447.85,80.27C452.316,80.27 456.646,78.517 459.998,75.646L459.998,83.98C457.137,86.5 452.387,88.253 446.179,88.253C434.872,88.253 427.261,80.758 427.261,69.619L427.255,69.619ZM451.825,65.137C451.546,61.214 448.543,58.343 444.427,58.343C440.31,58.343 437.307,60.655 436.188,65.137L451.825,65.137Z" style="fill:rgb(0,24,47);fill-rule:nonzero;"/>
            </g>
            <g transform="matrix(1.03346,0,0,1.27193,-9.10799,-17.0889)">
                <path d="M483.655,60.09C479.539,60.09 477.306,63.383 477.306,69.126L477.306,87.409L467.533,87.409L467.533,67.515C467.533,57.356 471.791,50.913 481.843,50.913C483.306,50.913 486.658,51.264 487.985,51.751L487.985,61.066C487.286,60.578 484.633,60.085 483.655,60.085L483.655,60.09Z" style="fill:rgb(0,24,47);fill-rule:nonzero;"/>
            </g>
        </g>
    </g>
</svg>
