<svg height="1075" viewBox="0 0 1690 1075" width="1690" xmlns="http://www.w3.org/2000/svg" xmlns:xlink="http://www.w3.org/1999/xlink"><defs><path id="a" d="m10 31h1438c5.52285 0 10 4.4771525 10 10v748c0 5.522847-4.47715 10-10 10h-1438c-5.5228475 0-10-4.477153-10-10v-748c0-5.5228475 4.4771525-10 10-10z"/><mask id="b" fill="#fff" height="768" width="1458" x="0" y="0"><use xlink:href="#a"/></mask><path id="c" d="m768 214h289c11.04569 0 20 8.954305 20 20v365c0 11.045695-8.95431 20-20 20h-289c-11.045695 0-20-8.954305-20-20v-365c0-11.045695 8.954305-20 20-20z"/><mask id="d" fill="#fff" height="405" width="329" x="0" y="0"><use xlink:href="#c"/></mask><path id="e" d="m0 0h302v41h-302z"/><mask id="f" fill="#fff" height="41" width="302" x="0" y="0"><use xlink:href="#e"/></mask><path id="g" d="m0 0h302v41h-302z"/><mask id="h" fill="#fff" height="41" width="302" x="0" y="0"><use xlink:href="#g"/></mask><path id="i" d="m20.5 0h261c11.321837 0 20.5 9.17816263 20.5 20.5 0 11.3218374-9.178163 20.5-20.5 20.5h-261c-11.32183737 0-20.5-9.1781626-20.5-20.5 0-11.32183737 9.17816263-20.5 20.5-20.5z"/><mask id="j" fill="#fff" height="41" width="302" x="0" y="0"><use xlink:href="#i"/></mask></defs><g fill="none" fill-rule="evenodd"><rect height="1039" rx="10" stroke="#bd10e0" stroke-width="2" width="1688" x="1" y="35"/><rect fill="#fff" fill-rule="evenodd" height="871" rx="10" width="1467" x="112" y="124"/><rect height="870" rx="10" stroke="#979797" width="1466" x="112.5" y="124.5"/><rect height="939" rx="10" stroke="#f5a623" stroke-width="2" width="1608" x="41" y="85"/><text fill="#9b9b9b" font-family="Menlo-Regular, Menlo" font-size="18" transform="translate(116 87)"><tspan x="5" y="22">Layout</tspan></text><text fill="#f5a623" font-family="Menlo-Bold, Menlo" font-size="20" font-weight="bold" transform="translate(40 50)"><tspan x="5" y="24">Slots.Provider</tspan></text><text fill="#bd10e0" font-family="Menlo-Bold, Menlo" font-size="20" font-weight="bold"><tspan x="5" y="24">Directives.Provider</tspan></text><g transform="translate(116 144)"><text fill="#9b9b9b" font-family="Menlo-Regular, Menlo" font-size="18" transform="translate(217)"><tspan x="5" y="22">LayoutKit.Frame</tspan></text><use style="stroke:#bd10e0;stroke-width:2;fill-opacity:.340806;fill:#ea81ff;stroke-dasharray:2;mask:url(#b)" xlink:href="#a"/><rect fill="#fff" fill-rule="evenodd" height="768" rx="10" width="1024" x="217" y="31"/><rect height="767" rx="10" stroke="#979797" width="1023" x="217.5" y="31.5"/><path d="m247 61h964v71h-964z" fill="#fff" fill-rule="evenodd"/><path d="m247.5 61.5h963v70h-963z" stroke="#979797"/><path d="m614 182h597v465h-597z" fill="#fff" fill-rule="evenodd"/><path d="m614.5 182.5h596v464h-596z" stroke="#979797"/><path d="m247 182h329v465h-329z" fill="#fff" fill-rule="evenodd"/><path d="m247.5 182.5h328v464h-328z" stroke="#979797"/><path d="m247 698h964v71h-964z" fill="#fff" fill-rule="evenodd"/><path d="m247.5 698.5h963v70h-963z" stroke="#979797"/><text fill="#9b9b9b" font-family="Menlo-Regular, Menlo" font-size="18" transform="translate(247 31)"><tspan x="5" y="22">LayoutKit.Header (bar)</tspan></text><text fill="#9b9b9b" font-family="Menlo-Regular, Menlo" font-size="18" transform="translate(614 151)"><tspan x="5" y="22">LayoutKit.ContentPanelMain</tspan></text><text fill="#9b9b9b" font-family="Menlo-Regular, Menlo" font-size="18" transform="translate(247 151)"><tspan x="5" y="22">LayoutKit.SidebarLeft</tspan></text><text fill="#9b9b9b" font-family="Menlo-Regular, Menlo" font-size="18" transform="translate(247 667)"><tspan x="5" y="22">LayoutKit.Footer</tspan></text><use fill="#fff" mask="url(#d)" stroke="#4a90e2" stroke-dasharray="5" stroke-width="2" xlink:href="#c"/><text fill="#4a90e2" font-family="Menlo-Regular, Menlo" font-size="18" transform="translate(678 183)"><tspan x="5" y="22">Page</tspan></text><g transform="translate(760 293)"><use fill="#fff" mask="url(#f)" stroke="#4a90e2" stroke-dasharray="5" stroke-width="2" xlink:href="#e"/><text fill="#4a90e2" font-family="Menlo-Bold, Menlo" font-size="18" font-weight="bold"><tspan x="85.478516" y="27">Edit Article</tspan></text></g><g transform="translate(760 558)"><use fill="#fff" mask="url(#h)" stroke="#4a90e2" stroke-dasharray="5" stroke-width="2" xlink:href="#g"/><text fill="#4a90e2" font-family="Menlo-Bold, Menlo" font-size="18" font-weight="bold"><tspan x="80.060059" y="27">PersistButton</tspan></text></g><rect fill="#fff" fill-rule="evenodd" height="192" rx="10" transform="translate(760 350)" width="302"/><rect height="190" rx="10" stroke="#4a90e2" stroke-width="2" transform="translate(760 350)" width="300" x="1" y="1"/><g font-family="Menlo-Bold, Menlo" font-weight="bold"><text fill="#4a90e2" font-size="18" transform="translate(760 425)"><tspan x="63.804688" y="27.581368">EditOrCreateForm</tspan></text><text fill="#f5a623" font-size="20"><tspan x="366" y="102">[Back]</tspan></text><text fill="#f5a623" font-size="20"><tspan x="461" y="102">[Title]</tspan></text><text fill="#f5a623" font-size="20"><tspan x="257" y="102">[Logo]</tspan></text><text fill="#f5a623" font-size="20"><tspan x="257" y="217">[Navigation]</tspan></text><text fill="#f5a623" font-size="20"><tspan x="257" y="739">[Profile]</tspan></text><text fill="#f5a623" font-size="20"><tspan x="1063" y="739">[Switchers]</tspan></text></g><path d="m1457.58242 258h-1457.58242" stroke="#bd10e0"/><path d="m1446.78242 255 10.8 3-10.8 3" stroke="#bd10e0"/><path d="m10.8 255-10.8 3 10.8 3" stroke="#bd10e0"/><text fill="#f5a623" font-family="Menlo-Bold, Menlo" font-size="20" font-weight="bold"><tspan x="1087" y="102">[Actions]</tspan></text><path d="m1270.28383 582c-163.63082 0-311.642271-232.5-109-465" stroke="#4a90e2" stroke-width="2" transform="matrix(-1 0 0 1 2333.283834 0)"/><path d="m1156.44933 127.112742 4.8345-10.112742-9.35762 6.170484" stroke="#4a90e2" stroke-width="2"/><path d="m761.230357 315.979905c-127.380051 0-257.230357-24.39842-257.230357-198.979905" stroke="#4a90e2" stroke-width="2"/><path d="m507 127.8-3-10.8-3 10.8" stroke="#4a90e2" stroke-width="2"/><g transform="translate(760 238)"><use fill="#fff" mask="url(#j)" stroke="#bd10e0" stroke-dasharray="5" stroke-width="2" xlink:href="#i"/><text fill="#bd10e0" font-family="Menlo-Bold, Menlo" font-size="18" font-weight="bold"><tspan x="96.31543" y="27">full-width</tspan></text></g></g></g></svg>