<svg width="613" height="235" viewBox="0 0 613 235" fill="none" xmlns="http://www.w3.org/2000/svg">
<path d="M51.527 140.921C51.527 120.628 67.5767 105.318 89.2629 105.318C95.7817 105.318 103.267 107.461 109.101 111.367V126.487C103.852 121.315 96.6489 118.393 89.7498 118.393C75.6473 118.393 66.1163 127.952 66.1163 140.921C66.1163 153.889 75.6473 163.257 89.7498 163.257C96.6565 163.257 103.852 160.328 109.101 155.163V170.284C103.267 174.182 95.7741 176.333 89.2629 176.333C67.5767 176.325 51.527 161.106 51.527 140.921Z" fill="#FFFFFA"/>
<path d="M115.026 150.38C115.026 135.558 126.695 124.336 141.87 124.336C157.045 124.336 168.713 135.55 168.713 150.38C168.713 165.21 156.946 176.325 141.87 176.325C126.794 176.325 115.026 165.012 115.026 150.38ZM141.87 163.936C149.263 163.936 154.9 158.184 154.9 150.38C154.9 142.576 149.256 136.725 141.87 136.725C134.484 136.725 128.84 142.576 128.84 150.38C128.84 158.184 134.484 163.936 141.87 163.936Z" fill="#FFFFFA"/>
<path d="M224.629 147.55V175.151H211.013V148.038C211.013 141.211 206.928 136.725 200.706 136.725C194.484 136.725 190.399 141.211 190.399 148.038V175.151H176.784V147.55C176.784 133.506 186.216 124.336 200.706 124.336C215.197 124.336 224.629 133.506 224.629 147.55Z" fill="#FFFFFA"/>
<path d="M251.761 112.145V125.511H268.1V136.824H251.761V154.477C251.761 161.503 255.747 164.425 260.029 164.425C263.528 164.425 265.963 163.448 268.1 162.281V174.182C264.601 175.646 260.805 176.325 257.595 176.325C246.505 176.325 238.047 169.597 238.047 155.255V136.824H230.075V125.511H238.047V112.145H251.761Z" fill="#FFFFFA"/>
<path d="M272.284 150.38C272.284 135.848 282.4 124.435 297.279 124.435C313.131 124.435 321.787 137.213 319.55 153.21H284.348C285.709 160.427 291.642 165.21 300.975 165.21C307.198 165.21 313.229 162.769 317.9 158.772V170.375C313.914 173.884 307.296 176.325 298.648 176.325C282.895 176.325 272.291 165.889 272.291 150.38H272.284ZM306.513 144.14C306.125 138.678 301.941 134.68 296.206 134.68C290.471 134.68 286.287 137.9 284.728 144.14H306.513Z" fill="#FFFFFA"/>
<path d="M342.69 148.328V175.151H329.074V125.511H342.69V133.117C345.512 127.456 351.247 124.336 356.305 124.336C363.402 124.336 368.362 127.258 371.085 132.819C374.972 127.258 380.327 124.336 387.226 124.336C398.217 124.336 404.728 132.14 404.728 146.284V175.151H391.113V147.451C391.113 140.822 387.903 136.725 382.844 136.725C377.299 136.725 373.701 141.211 373.701 148.328V175.151H360.086V147.451C360.086 140.822 356.876 136.725 351.916 136.725C346.272 136.725 342.674 141.211 342.674 148.328H342.69Z" fill="#FFFFFA"/>
<path d="M429.533 167.644V175.151H415.917V106.485H429.533V133.017C432.545 127.456 438.189 124.336 445.385 124.336C458.803 124.336 469.407 135.359 469.407 150.38C469.407 165.401 458.803 176.325 445.385 176.325C438.189 176.325 432.545 173.205 429.533 167.644ZM442.563 163.936C449.957 163.936 455.593 158.184 455.593 150.38C455.593 142.576 449.949 136.725 442.563 136.725C435.177 136.725 429.533 142.576 429.533 150.38C429.533 158.184 435.177 163.936 442.563 163.936Z" fill="#FFFFFA"/>
<path d="M475.431 150.38C475.431 135.848 485.548 124.435 500.426 124.435C516.278 124.435 524.934 137.213 522.698 153.21H487.495C488.856 160.427 494.79 165.21 504.123 165.21C510.345 165.21 516.377 162.769 521.047 158.772V170.375C517.061 173.884 510.444 176.325 501.795 176.325C486.042 176.325 475.439 165.889 475.439 150.38H475.431ZM509.66 144.14C509.272 138.678 505.089 134.68 499.353 134.68C493.618 134.68 489.435 137.9 487.875 144.14H509.66Z" fill="#FFFFFA"/>
<path d="M554.006 137.114C548.271 137.114 545.16 141.699 545.16 149.694V175.151H531.544V147.451C531.544 133.307 537.477 124.336 551.481 124.336C553.519 124.336 558.19 124.824 560.038 125.503V138.472C559.065 137.793 555.368 137.106 554.006 137.106V137.114Z" fill="#FFFFFA"/>
<path d="M153.924 62.84H143.084V68.16H145.604V85.68H143.084V91H153.924V85.68H151.444V68.16H153.924V62.84ZM163.228 70.64H157.628V91H163.228V80.36C163.228 77.4 165.028 75.28 167.508 75.28C169.988 75.28 171.668 77.12 171.668 79.92V91H177.268V79.16C177.268 73.6 174.068 70.16 169.268 70.16C166.628 70.16 164.508 71.44 163.228 73.64V70.64ZM182.932 65.16V70.64H179.652V75.28H182.932V82.84C182.932 88.72 186.412 91.48 190.972 91.48C192.292 91.48 193.852 91.2 195.292 90.6V85.72C194.412 86.2 193.412 86.6 191.972 86.6C190.212 86.6 188.572 85.4 188.572 82.52V75.28H195.292V70.64H188.572V65.16H182.932ZM207.854 91.48C211.374 91.48 214.134 90.48 215.734 89.04V84.08C213.814 85.72 211.334 86.76 208.814 86.76C205.014 86.76 202.774 84.96 202.214 82.12H216.414C217.334 75.56 214.174 70.16 207.254 70.16C201.134 70.16 197.014 74.88 197.014 80.84C197.014 87.2 201.334 91.48 207.854 91.48ZM202.294 78.28C202.934 75.76 204.574 74.56 206.854 74.56C209.214 74.56 210.734 76.24 210.854 78.28H202.294ZM232.044 75.44V70.24C231.884 70.16 231.564 70.16 231.284 70.16C228.804 70.16 226.604 72.08 225.884 74.72V70.64H220.284V91H225.884V81.88C225.924 77.88 228.244 75.36 230.964 75.36C231.364 75.36 231.724 75.36 232.044 75.44ZM236.613 69.72V70.64H233.333V75.28H236.613V91H242.213V75.28H248.973V70.64H242.213V70C242.213 67.16 243.893 65.96 245.653 65.96C247.093 65.96 248.093 66.32 248.973 66.84V61.96C247.533 61.36 245.973 61.04 244.653 61.04C240.093 61.04 236.613 63.84 236.613 69.72ZM262.343 78.96V79.92C261.143 79.04 259.263 78.44 257.343 78.44C253.063 78.44 250.023 81.08 250.023 84.92C250.023 88.68 252.903 91.48 256.863 91.48C259.343 91.48 261.423 90.28 262.343 88.4V91H267.943V78.64C267.943 73.64 263.983 70.16 258.183 70.16C255.703 70.16 253.143 70.84 251.223 72.32V77.28C252.983 75.8 255.103 74.92 257.383 74.92C260.343 74.92 262.343 76.4 262.343 78.96ZM255.463 84.76C255.463 83.32 256.663 82.32 258.543 82.32C259.903 82.32 261.223 82.76 262.343 83.48V83.52C262.223 85.72 260.503 87.12 258.303 87.12C256.583 87.12 255.463 86.2 255.463 84.76ZM282.589 91.48C284.349 91.48 287.029 90.88 288.789 89.32V83.68C287.269 85.44 285.149 86.4 282.869 86.4C279.549 86.4 276.989 84.04 276.989 80.84C276.989 77.64 279.549 75.24 282.869 75.24C285.189 75.24 287.149 76.16 288.669 77.88V72.28C286.909 70.72 284.349 70.16 282.589 70.16C276.109 70.16 271.349 74.4 271.349 80.84C271.349 87.24 276.109 91.48 282.589 91.48ZM302.307 91.48C305.827 91.48 308.587 90.48 310.187 89.04V84.08C308.267 85.72 305.787 86.76 303.267 86.76C299.467 86.76 297.227 84.96 296.667 82.12H310.867C311.787 75.56 308.627 70.16 301.707 70.16C295.587 70.16 291.467 74.88 291.467 80.84C291.467 87.2 295.787 91.48 302.307 91.48ZM296.747 78.28C297.387 75.76 299.027 74.56 301.307 74.56C303.667 74.56 305.187 76.24 305.307 78.28H296.747Z" fill="#FFFFFA"/>
<path d="M137 50.0596H322.731C327.116 50.0596 330.671 53.6146 330.671 58V96C330.671 100.385 327.116 103.94 322.731 103.94H129.06V58C129.06 53.6146 132.615 50.0596 137 50.0596Z" stroke="#FFFFFA" stroke-width="4.11919"/>
</svg>
