<svg width="613" height="235" viewBox="0 0 613 235" fill="none" xmlns="http://www.w3.org/2000/svg">
<path d="M51.5269 140.921C51.5269 120.628 67.5766 105.318 89.2628 105.318C95.7816 105.318 103.266 107.461 109.101 111.367V126.487C103.852 121.315 96.6488 118.393 89.7496 118.393C75.6471 118.393 66.1162 127.952 66.1162 140.921C66.1162 153.889 75.6471 163.257 89.7496 163.257C96.6564 163.257 103.852 160.328 109.101 155.163V170.284C103.266 174.182 95.774 176.333 89.2628 176.333C67.5766 176.325 51.5269 161.106 51.5269 140.921Z" fill="#00182F"/>
<path d="M115.026 150.38C115.026 135.558 126.695 124.336 141.87 124.336C157.045 124.336 168.713 135.55 168.713 150.38C168.713 165.21 156.946 176.325 141.87 176.325C126.794 176.325 115.026 165.012 115.026 150.38ZM141.87 163.936C149.263 163.936 154.9 158.184 154.9 150.38C154.9 142.576 149.256 136.725 141.87 136.725C134.484 136.725 128.84 142.576 128.84 150.38C128.84 158.184 134.484 163.936 141.87 163.936Z" fill="#00182F"/>
<path d="M224.629 147.55V175.151H211.013V148.038C211.013 141.211 206.928 136.725 200.706 136.725C194.484 136.725 190.399 141.211 190.399 148.038V175.151H176.784V147.55C176.784 133.506 186.216 124.336 200.706 124.336C215.197 124.336 224.629 133.506 224.629 147.55Z" fill="#00182F"/>
<path d="M251.761 112.145V125.511H268.1V136.824H251.761V154.477C251.761 161.503 255.747 164.425 260.029 164.425C263.528 164.425 265.963 163.448 268.1 162.281V174.182C264.601 175.646 260.805 176.325 257.595 176.325C246.505 176.325 238.047 169.597 238.047 155.255V136.824H230.075V125.511H238.047V112.145H251.761Z" fill="#00182F"/>
<path d="M272.283 150.38C272.283 135.848 282.4 124.435 297.278 124.435C313.13 124.435 321.787 137.213 319.55 153.21H284.347C285.709 160.427 291.642 165.21 300.975 165.21C307.197 165.21 313.229 162.769 317.9 158.772V170.375C313.914 173.884 307.296 176.325 298.648 176.325C282.895 176.325 272.291 165.889 272.291 150.38H272.283ZM306.513 144.14C306.125 138.678 301.941 134.68 296.206 134.68C290.471 134.68 286.287 137.9 284.728 144.14H306.513Z" fill="#00182F"/>
<path d="M342.69 148.328V175.151H329.074V125.511H342.69V133.117C345.512 127.456 351.247 124.336 356.305 124.336C363.402 124.336 368.362 127.258 371.085 132.819C374.972 127.258 380.327 124.336 387.226 124.336C398.217 124.336 404.728 132.14 404.728 146.284V175.151H391.113V147.451C391.113 140.822 387.903 136.725 382.844 136.725C377.299 136.725 373.701 141.211 373.701 148.328V175.151H360.086V147.451C360.086 140.822 356.876 136.725 351.916 136.725C346.272 136.725 342.674 141.211 342.674 148.328H342.69Z" fill="#00182F"/>
<path d="M429.533 167.644V175.151H415.917V106.485H429.533V133.017C432.545 127.456 438.189 124.336 445.385 124.336C458.803 124.336 469.407 135.359 469.407 150.38C469.407 165.401 458.803 176.325 445.385 176.325C438.189 176.325 432.545 173.205 429.533 167.644ZM442.563 163.936C449.957 163.936 455.593 158.184 455.593 150.38C455.593 142.576 449.949 136.725 442.563 136.725C435.177 136.725 429.533 142.576 429.533 150.38C429.533 158.184 435.177 163.936 442.563 163.936Z" fill="#00182F"/>
<path d="M475.431 150.38C475.431 135.848 485.548 124.435 500.426 124.435C516.278 124.435 524.934 137.213 522.698 153.21H487.495C488.856 160.427 494.79 165.21 504.123 165.21C510.345 165.21 516.377 162.769 521.047 158.772V170.375C517.061 173.884 510.444 176.325 501.795 176.325C486.042 176.325 475.439 165.889 475.439 150.38H475.431ZM509.66 144.14C509.272 138.678 505.089 134.68 499.353 134.68C493.618 134.68 489.435 137.9 487.875 144.14H509.66Z" fill="#00182F"/>
<path d="M554.006 137.114C548.271 137.114 545.16 141.699 545.16 149.694V175.151H531.544V147.451C531.544 133.307 537.477 124.336 551.481 124.336C553.519 124.336 558.19 124.824 560.038 125.503V138.472C559.065 137.793 555.368 137.106 554.006 137.106V137.114Z" fill="#00182F"/>
</svg>
