<svg width="442" height="339" viewBox="0 0 442 339" fill="none" xmlns="http://www.w3.org/2000/svg">
<rect x="0.5" y="0.5" width="441" height="338" rx="3.5" fill="#001E34"/>
<path d="M18.6875 21.3906C18.5469 22.5938 18.1016 23.5234 17.3516 24.1797C16.6068 24.8307 15.6146 25.1562 14.375 25.1562C13.0312 25.1562 11.9531 24.6745 11.1406 23.7109C10.3333 22.7474 9.92969 21.4583 9.92969 19.8438V18.75C9.92969 17.6927 10.1172 16.763 10.4922 15.9609C10.8724 15.1589 11.4089 14.5443 12.1016 14.1172C12.7943 13.6849 13.5964 13.4688 14.5078 13.4688C15.7161 13.4688 16.6849 13.8073 17.4141 14.4844C18.1432 15.1562 18.5677 16.0885 18.6875 17.2812H17.1797C17.0495 16.375 16.7656 15.7188 16.3281 15.3125C15.8958 14.9062 15.2891 14.7031 14.5078 14.7031C13.5495 14.7031 12.7969 15.0573 12.25 15.7656C11.7083 16.474 11.4375 17.4818 11.4375 18.7891V19.8906C11.4375 21.125 11.6953 22.1068 12.2109 22.8359C12.7266 23.5651 13.4479 23.9297 14.375 23.9297C15.2083 23.9297 15.8464 23.7422 16.2891 23.3672C16.737 22.987 17.0339 22.3281 17.1797 21.3906H18.6875ZM20.1328 20.6953C20.1328 19.8672 20.2943 19.1224 20.6172 18.4609C20.9453 17.7995 21.3984 17.2891 21.9766 16.9297C22.5599 16.5703 23.224 16.3906 23.9688 16.3906C25.1198 16.3906 26.0495 16.7891 26.7578 17.5859C27.4714 18.3828 27.8281 19.4427 27.8281 20.7656V20.8672C27.8281 21.6901 27.6693 22.4297 27.3516 23.0859C27.0391 23.737 26.5885 24.2448 26 24.6094C25.4167 24.974 24.7448 25.1562 23.9844 25.1562C22.8385 25.1562 21.9089 24.7578 21.1953 23.9609C20.487 23.1641 20.1328 22.1094 20.1328 20.7969V20.6953ZM21.5859 20.8672C21.5859 21.8047 21.8021 22.5573 22.2344 23.125C22.6719 23.6927 23.2552 23.9766 23.9844 23.9766C24.7188 23.9766 25.3021 23.6901 25.7344 23.1172C26.1667 22.5391 26.3828 21.7318 26.3828 20.6953C26.3828 19.7682 26.1615 19.0182 25.7188 18.4453C25.2812 17.8672 24.6979 17.5781 23.9688 17.5781C23.2552 17.5781 22.6797 17.862 22.2422 18.4297C21.8047 18.9974 21.5859 19.8099 21.5859 20.8672ZM31.0078 16.5469L31.0547 17.6094C31.7005 16.7969 32.5443 16.3906 33.5859 16.3906C35.3724 16.3906 36.2734 17.3984 36.2891 19.4141V25H34.8438V19.4062C34.8385 18.7969 34.6979 18.3464 34.4219 18.0547C34.151 17.763 33.7266 17.6172 33.1484 17.6172C32.6797 17.6172 32.2682 17.7422 31.9141 17.9922C31.5599 18.2422 31.2839 18.5703 31.0859 18.9766V25H29.6406V16.5469H31.0078ZM40.4297 14.5V16.5469H42.0078V17.6641H40.4297V22.9062C40.4297 23.2448 40.5 23.5 40.6406 23.6719C40.7812 23.8385 41.0208 23.9219 41.3594 23.9219C41.526 23.9219 41.7552 23.8906 42.0469 23.8281V25C41.6667 25.1042 41.2969 25.1562 40.9375 25.1562C40.2917 25.1562 39.8047 24.9609 39.4766 24.5703C39.1484 24.1797 38.9844 23.625 38.9844 22.9062V17.6641H37.4453V16.5469H38.9844V14.5H40.4297ZM47.2109 25.1562C46.0651 25.1562 45.1328 24.7812 44.4141 24.0312C43.6953 23.276 43.3359 22.2682 43.3359 21.0078V20.7422C43.3359 19.9036 43.4948 19.1562 43.8125 18.5C44.1354 17.8385 44.5833 17.3229 45.1562 16.9531C45.7344 16.5781 46.3594 16.3906 47.0312 16.3906C48.1302 16.3906 48.9844 16.7526 49.5938 17.4766C50.2031 18.2005 50.5078 19.237 50.5078 20.5859V21.1875H44.7812C44.8021 22.0208 45.0443 22.6953 45.5078 23.2109C45.9766 23.7214 46.5703 23.9766 47.2891 23.9766C47.7995 23.9766 48.2318 23.8724 48.5859 23.6641C48.9401 23.4557 49.25 23.1797 49.5156 22.8359L50.3984 23.5234C49.6901 24.612 48.6276 25.1562 47.2109 25.1562ZM47.0312 17.5781C46.4479 17.5781 45.9583 17.7917 45.5625 18.2188C45.1667 18.6406 44.9219 19.2344 44.8281 20H49.0625V19.8906C49.0208 19.1562 48.8229 18.5885 48.4688 18.1875C48.1146 17.7812 47.6354 17.5781 47.0312 17.5781ZM53.5469 16.5469L53.5859 17.4844C54.2057 16.7552 55.0417 16.3906 56.0938 16.3906C57.276 16.3906 58.0807 16.8438 58.5078 17.75C58.7891 17.3438 59.1536 17.0156 59.6016 16.7656C60.0547 16.5156 60.5885 16.3906 61.2031 16.3906C63.0573 16.3906 64 17.3724 64.0312 19.3359V25H62.5859V19.4219C62.5859 18.8177 62.4479 18.3672 62.1719 18.0703C61.8958 17.7682 61.4323 17.6172 60.7812 17.6172C60.2448 17.6172 59.7995 17.7786 59.4453 18.1016C59.0911 18.4193 58.8854 18.849 58.8281 19.3906V25H57.375V19.4609C57.375 18.2318 56.7734 17.6172 55.5703 17.6172C54.6224 17.6172 53.974 18.0208 53.625 18.8281V25H52.1797V16.5469H53.5469ZM73.375 20.8672C73.375 22.1589 73.0781 23.1979 72.4844 23.9844C71.8906 24.7656 71.0938 25.1562 70.0938 25.1562C69.026 25.1562 68.2005 24.7786 67.6172 24.0234L67.5469 25H66.2188V13H67.6641V17.4766C68.2474 16.7526 69.0521 16.3906 70.0781 16.3906C71.1042 16.3906 71.9089 16.7786 72.4922 17.5547C73.0807 18.3307 73.375 19.3932 73.375 20.7422V20.8672ZM71.9297 20.7031C71.9297 19.7188 71.7396 18.9583 71.3594 18.4219C70.9792 17.8854 70.4323 17.6172 69.7188 17.6172C68.7656 17.6172 68.0807 18.0599 67.6641 18.9453V22.6016C68.1068 23.487 68.7969 23.9297 69.7344 23.9297C70.4271 23.9297 70.9661 23.6615 71.3516 23.125C71.737 22.5885 71.9297 21.7812 71.9297 20.7031ZM78.7109 25.1562C77.5651 25.1562 76.6328 24.7812 75.9141 24.0312C75.1953 23.276 74.8359 22.2682 74.8359 21.0078V20.7422C74.8359 19.9036 74.9948 19.1562 75.3125 18.5C75.6354 17.8385 76.0833 17.3229 76.6562 16.9531C77.2344 16.5781 77.8594 16.3906 78.5312 16.3906C79.6302 16.3906 80.4844 16.7526 81.0938 17.4766C81.7031 18.2005 82.0078 19.237 82.0078 20.5859V21.1875H76.2812C76.3021 22.0208 76.5443 22.6953 77.0078 23.2109C77.4766 23.7214 78.0703 23.9766 78.7891 23.9766C79.2995 23.9766 79.7318 23.8724 80.0859 23.6641C80.4401 23.4557 80.75 23.1797 81.0156 22.8359L81.8984 23.5234C81.1901 24.612 80.1276 25.1562 78.7109 25.1562ZM78.5312 17.5781C77.9479 17.5781 77.4583 17.7917 77.0625 18.2188C76.6667 18.6406 76.4219 19.2344 76.3281 20H80.5625V19.8906C80.5208 19.1562 80.3229 18.5885 79.9688 18.1875C79.6146 17.7812 79.1354 17.5781 78.5312 17.5781ZM87.7734 17.8438C87.5547 17.8073 87.3177 17.7891 87.0625 17.7891C86.1146 17.7891 85.4714 18.1927 85.1328 19V25H83.6875V16.5469H85.0938L85.1172 17.5234C85.5911 16.7682 86.263 16.3906 87.1328 16.3906C87.4141 16.3906 87.6276 16.4271 87.7734 16.5V17.8438ZM99.5859 22.0312H94.8203L93.75 25H92.2031L96.5469 13.625H97.8594L102.211 25H100.672L99.5859 22.0312ZM95.2734 20.7969H99.1406L97.2031 15.4766L95.2734 20.7969ZM105.242 20.5469V25H103.742V13.625H107.938C109.182 13.625 110.156 13.9427 110.859 14.5781C111.568 15.2135 111.922 16.0547 111.922 17.1016C111.922 18.2057 111.576 19.0573 110.883 19.6562C110.195 20.25 109.208 20.5469 107.922 20.5469H105.242ZM105.242 19.3203H107.938C108.74 19.3203 109.354 19.1328 109.781 18.7578C110.208 18.3776 110.422 17.8307 110.422 17.1172C110.422 16.4401 110.208 15.8984 109.781 15.4922C109.354 15.0859 108.768 14.875 108.023 14.8594H105.242V19.3203ZM115.445 25H113.945V13.625H115.445V25ZM124.945 20.7578H121.133V19.5781H124.945V20.7578ZM132.164 25H130.664V13.625H132.164V25ZM136.055 16.5469L136.102 17.6094C136.747 16.7969 137.591 16.3906 138.633 16.3906C140.419 16.3906 141.32 17.3984 141.336 19.4141V25H139.891V19.4062C139.885 18.7969 139.745 18.3464 139.469 18.0547C139.198 17.763 138.773 17.6172 138.195 17.6172C137.727 17.6172 137.315 17.7422 136.961 17.9922C136.607 18.2422 136.331 18.5703 136.133 18.9766V25H134.688V16.5469H136.055ZM148.438 22.7578C148.438 22.3672 148.289 22.0651 147.992 21.8516C147.701 21.6328 147.188 21.4453 146.453 21.2891C145.724 21.1328 145.143 20.9453 144.711 20.7266C144.284 20.5078 143.966 20.2474 143.758 19.9453C143.555 19.6432 143.453 19.2839 143.453 18.8672C143.453 18.1745 143.745 17.5885 144.328 17.1094C144.917 16.6302 145.667 16.3906 146.578 16.3906C147.536 16.3906 148.312 16.638 148.906 17.1328C149.505 17.6276 149.805 18.2604 149.805 19.0312H148.352C148.352 18.6354 148.182 18.2943 147.844 18.0078C147.51 17.7214 147.089 17.5781 146.578 17.5781C146.052 17.5781 145.641 17.6927 145.344 17.9219C145.047 18.151 144.898 18.4505 144.898 18.8203C144.898 19.1693 145.036 19.4323 145.312 19.6094C145.589 19.7865 146.086 19.9557 146.805 20.1172C147.529 20.2786 148.115 20.4714 148.562 20.6953C149.01 20.9193 149.341 21.1901 149.555 21.5078C149.773 21.8203 149.883 22.2031 149.883 22.6562C149.883 23.4115 149.581 24.0182 148.977 24.4766C148.372 24.9297 147.589 25.1562 146.625 25.1562C145.948 25.1562 145.349 25.0365 144.828 24.7969C144.307 24.5573 143.898 24.224 143.602 23.7969C143.31 23.3646 143.164 22.8984 143.164 22.3984H144.609C144.635 22.8828 144.828 23.2682 145.188 23.5547C145.552 23.8359 146.031 23.9766 146.625 23.9766C147.172 23.9766 147.609 23.8672 147.938 23.6484C148.271 23.4245 148.438 23.1276 148.438 22.7578ZM153.727 14.5V16.5469H155.305V17.6641H153.727V22.9062C153.727 23.2448 153.797 23.5 153.938 23.6719C154.078 23.8385 154.318 23.9219 154.656 23.9219C154.823 23.9219 155.052 23.8906 155.344 23.8281V25C154.964 25.1042 154.594 25.1562 154.234 25.1562C153.589 25.1562 153.102 24.9609 152.773 24.5703C152.445 24.1797 152.281 23.625 152.281 22.9062V17.6641H150.742V16.5469H152.281V14.5H153.727ZM162.219 25C162.135 24.8333 162.068 24.5365 162.016 24.1094C161.344 24.8073 160.542 25.1562 159.609 25.1562C158.776 25.1562 158.091 24.9219 157.555 24.4531C157.023 23.9792 156.758 23.3802 156.758 22.6562C156.758 21.776 157.091 21.0938 157.758 20.6094C158.43 20.1198 159.372 19.875 160.586 19.875H161.992V19.2109C161.992 18.7057 161.841 18.3047 161.539 18.0078C161.237 17.7057 160.792 17.5547 160.203 17.5547C159.688 17.5547 159.255 17.6849 158.906 17.9453C158.557 18.2057 158.383 18.5208 158.383 18.8906H156.93C156.93 18.4688 157.078 18.0625 157.375 17.6719C157.677 17.276 158.083 16.9635 158.594 16.7344C159.109 16.5052 159.674 16.3906 160.289 16.3906C161.263 16.3906 162.026 16.6354 162.578 17.125C163.13 17.6094 163.417 18.2786 163.438 19.1328V23.0234C163.438 23.7995 163.536 24.4167 163.734 24.875V25H162.219ZM159.82 23.8984C160.273 23.8984 160.703 23.7812 161.109 23.5469C161.516 23.3125 161.81 23.0078 161.992 22.6328V20.8984H160.859C159.089 20.8984 158.203 21.4167 158.203 22.4531C158.203 22.9062 158.354 23.2604 158.656 23.5156C158.958 23.7708 159.346 23.8984 159.82 23.8984ZM167.07 16.5469L167.117 17.6094C167.763 16.7969 168.607 16.3906 169.648 16.3906C171.435 16.3906 172.336 17.3984 172.352 19.4141V25H170.906V19.4062C170.901 18.7969 170.76 18.3464 170.484 18.0547C170.214 17.763 169.789 17.6172 169.211 17.6172C168.742 17.6172 168.331 17.7422 167.977 17.9922C167.622 18.2422 167.346 18.5703 167.148 18.9766V25H165.703V16.5469H167.07ZM177.922 23.9766C178.438 23.9766 178.888 23.8203 179.273 23.5078C179.659 23.1953 179.872 22.8047 179.914 22.3359H181.281C181.255 22.8203 181.089 23.2812 180.781 23.7188C180.474 24.1562 180.062 24.5052 179.547 24.7656C179.036 25.026 178.495 25.1562 177.922 25.1562C176.771 25.1562 175.854 24.7734 175.172 24.0078C174.495 23.237 174.156 22.1849 174.156 20.8516V20.6094C174.156 19.7865 174.307 19.0547 174.609 18.4141C174.911 17.7734 175.344 17.276 175.906 16.9219C176.474 16.5677 177.143 16.3906 177.914 16.3906C178.862 16.3906 179.648 16.6745 180.273 17.2422C180.904 17.8099 181.24 18.5469 181.281 19.4531H179.914C179.872 18.9062 179.664 18.4583 179.289 18.1094C178.919 17.7552 178.461 17.5781 177.914 17.5781C177.18 17.5781 176.609 17.8438 176.203 18.375C175.802 18.901 175.602 19.6641 175.602 20.6641V20.9375C175.602 21.9115 175.802 22.6615 176.203 23.1875C176.604 23.7135 177.177 23.9766 177.922 23.9766ZM186.414 25.1562C185.268 25.1562 184.336 24.7812 183.617 24.0312C182.898 23.276 182.539 22.2682 182.539 21.0078V20.7422C182.539 19.9036 182.698 19.1562 183.016 18.5C183.339 17.8385 183.786 17.3229 184.359 16.9531C184.938 16.5781 185.562 16.3906 186.234 16.3906C187.333 16.3906 188.188 16.7526 188.797 17.4766C189.406 18.2005 189.711 19.237 189.711 20.5859V21.1875H183.984C184.005 22.0208 184.247 22.6953 184.711 23.2109C185.18 23.7214 185.773 23.9766 186.492 23.9766C187.003 23.9766 187.435 23.8724 187.789 23.6641C188.143 23.4557 188.453 23.1797 188.719 22.8359L189.602 23.5234C188.893 24.612 187.831 25.1562 186.414 25.1562ZM186.234 17.5781C185.651 17.5781 185.161 17.7917 184.766 18.2188C184.37 18.6406 184.125 19.2344 184.031 20H188.266V19.8906C188.224 19.1562 188.026 18.5885 187.672 18.1875C187.318 17.7812 186.839 17.5781 186.234 17.5781Z" fill="white"/>
<rect x="9" y="40.8333" width="424" height="31" rx="3.5" fill="#DFEDFB"/>
<path d="M26.6797 51.1927H23.0234V61.3333H21.5312V51.1927H17.8828V49.9583H26.6797V51.1927ZM30.8672 61.4896C29.7214 61.4896 28.7891 61.1146 28.0703 60.3646C27.3516 59.6094 26.9922 58.6016 26.9922 57.3412V57.0755C26.9922 56.237 27.151 55.4896 27.4688 54.8333C27.7917 54.1719 28.2396 53.6563 28.8125 53.2865C29.3906 52.9115 30.0156 52.724 30.6875 52.724C31.7865 52.724 32.6406 53.0859 33.25 53.8099C33.8594 54.5339 34.1641 55.5703 34.1641 56.9193V57.5208H28.4375C28.4583 58.3542 28.7005 59.0287 29.1641 59.5443C29.6328 60.0547 30.2266 60.3099 30.9453 60.3099C31.4557 60.3099 31.888 60.2057 32.2422 59.9974C32.5964 59.7891 32.9062 59.513 33.1719 59.1693L34.0547 59.8568C33.3464 60.9453 32.2839 61.4896 30.8672 61.4896ZM30.6875 53.9115C30.1042 53.9115 29.6146 54.125 29.2188 54.5521C28.8229 54.974 28.5781 55.5677 28.4844 56.3333H32.7188V56.224C32.6771 55.4896 32.4792 54.9219 32.125 54.5208C31.7708 54.1146 31.2917 53.9115 30.6875 53.9115ZM37.2109 52.8802L37.2578 53.9427C37.9036 53.1302 38.7474 52.724 39.7891 52.724C41.5755 52.724 42.4766 53.7318 42.4922 55.7474V61.3333H41.0469V55.7396C41.0417 55.1302 40.901 54.6797 40.625 54.388C40.3542 54.0964 39.9297 53.9505 39.3516 53.9505C38.8828 53.9505 38.4714 54.0755 38.1172 54.3255C37.763 54.5755 37.487 54.9037 37.2891 55.3099V61.3333H35.8438V52.8802H37.2109ZM49.8906 61.3333C49.8073 61.1667 49.7396 60.8698 49.6875 60.4427C49.0156 61.1406 48.2135 61.4896 47.2812 61.4896C46.4479 61.4896 45.763 61.2552 45.2266 60.7865C44.6953 60.3125 44.4297 59.7136 44.4297 58.9896C44.4297 58.1094 44.763 57.4271 45.4297 56.9427C46.1016 56.4531 47.0443 56.2083 48.2578 56.2083H49.6641V55.5443C49.6641 55.0391 49.513 54.638 49.2109 54.3412C48.9089 54.0391 48.4635 53.888 47.875 53.888C47.3594 53.888 46.9271 54.0182 46.5781 54.2787C46.2292 54.5391 46.0547 54.8542 46.0547 55.224H44.6016C44.6016 54.8021 44.75 54.3958 45.0469 54.0052C45.349 53.6094 45.7552 53.2969 46.2656 53.0677C46.7812 52.8386 47.3464 52.724 47.9609 52.724C48.9349 52.724 49.6979 52.9688 50.25 53.4583C50.8021 53.9427 51.0885 54.612 51.1094 55.4662V59.3568C51.1094 60.1328 51.2083 60.75 51.4062 61.2083V61.3333H49.8906ZM47.4922 60.2318C47.9453 60.2318 48.375 60.1146 48.7812 59.8802C49.1875 59.6458 49.4818 59.3412 49.6641 58.9662V57.2318H48.5312C46.7604 57.2318 45.875 57.75 45.875 58.7865C45.875 59.2396 46.026 59.5938 46.3281 59.849C46.6302 60.1042 47.0182 60.2318 47.4922 60.2318ZM54.7422 52.8802L54.7891 53.9427C55.4349 53.1302 56.2786 52.724 57.3203 52.724C59.1068 52.724 60.0078 53.7318 60.0234 55.7474V61.3333H58.5781V55.7396C58.5729 55.1302 58.4323 54.6797 58.1562 54.388C57.8854 54.0964 57.4609 53.9505 56.8828 53.9505C56.4141 53.9505 56.0026 54.0755 55.6484 54.3255C55.2943 54.5755 55.0182 54.9037 54.8203 55.3099V61.3333H53.375V52.8802H54.7422ZM64.1641 50.8333V52.8802H65.7422V53.9974H64.1641V59.2396C64.1641 59.5781 64.2344 59.8333 64.375 60.0052C64.5156 60.1719 64.7552 60.2552 65.0938 60.2552C65.2604 60.2552 65.4896 60.224 65.7812 60.1615V61.3333C65.401 61.4375 65.0312 61.4896 64.6719 61.4896C64.026 61.4896 63.5391 61.2943 63.2109 60.9037C62.8828 60.513 62.7188 59.9583 62.7188 59.2396V53.9974H61.1797V52.8802H62.7188V50.8333H64.1641ZM77.9141 58.3646H73.1484L72.0781 61.3333H70.5312L74.875 49.9583H76.1875L80.5391 61.3333H79L77.9141 58.3646ZM73.6016 57.1302H77.4688L75.5312 51.8099L73.6016 57.1302ZM83.5703 56.8802V61.3333H82.0703V49.9583H86.2656C87.5104 49.9583 88.4844 50.2761 89.1875 50.9115C89.8958 51.5469 90.25 52.388 90.25 53.4349C90.25 54.5391 89.9036 55.3906 89.2109 55.9896C88.5234 56.5833 87.5365 56.8802 86.25 56.8802H83.5703ZM83.5703 55.6537H86.2656C87.0677 55.6537 87.6823 55.4662 88.1094 55.0912C88.5365 54.7109 88.75 54.1641 88.75 53.4505C88.75 52.7734 88.5365 52.2318 88.1094 51.8255C87.6823 51.4193 87.0964 51.2083 86.3516 51.1927H83.5703V55.6537ZM93.7734 61.3333H92.2734V49.9583H93.7734V61.3333Z" fill="black"/>
<rect x="9" y="40.8333" width="424" height="31" rx="3.5" stroke="#6C8EBF"/>
<rect x="9" y="84.1667" width="424" height="116" rx="3.5" fill="#F8F8F8"/>
<path d="M20.3203 100.214V104.667H18.8203V93.2917H23.0156C24.2604 93.2917 25.2344 93.6094 25.9375 94.2448C26.6458 94.8802 27 95.7213 27 96.7682C27 97.8724 26.6536 98.7239 25.9609 99.3229C25.2734 99.9167 24.2865 100.214 23 100.214H20.3203ZM20.3203 98.987H23.0156C23.8177 98.987 24.4323 98.7995 24.8594 98.4245C25.2865 98.0443 25.5 97.4974 25.5 96.7838C25.5 96.1068 25.2865 95.5651 24.8594 95.1588C24.4323 94.7526 23.8464 94.5417 23.1016 94.526H20.3203V98.987ZM32.7734 97.5104C32.5547 97.4739 32.3177 97.4557 32.0625 97.4557C31.1146 97.4557 30.4714 97.8594 30.1328 98.6667V104.667H28.6875V96.2135H30.0938L30.1172 97.1901C30.5911 96.4349 31.263 96.0573 32.1328 96.0573C32.4141 96.0573 32.6276 96.0937 32.7734 96.1667V97.5104ZM33.5703 100.362C33.5703 99.5338 33.7318 98.7891 34.0547 98.1276C34.3828 97.4661 34.8359 96.9557 35.4141 96.5963C35.9974 96.237 36.6615 96.0573 37.4062 96.0573C38.5573 96.0573 39.487 96.4557 40.1953 97.2526C40.9089 98.0495 41.2656 99.1094 41.2656 100.432V100.534C41.2656 101.357 41.1068 102.096 40.7891 102.753C40.4766 103.404 40.026 103.911 39.4375 104.276C38.8542 104.641 38.1823 104.823 37.4219 104.823C36.276 104.823 35.3464 104.424 34.6328 103.628C33.9245 102.831 33.5703 101.776 33.5703 100.464V100.362ZM35.0234 100.534C35.0234 101.471 35.2396 102.224 35.6719 102.792C36.1094 103.359 36.6927 103.643 37.4219 103.643C38.1562 103.643 38.7396 103.357 39.1719 102.784C39.6042 102.206 39.8203 101.398 39.8203 100.362C39.8203 99.4349 39.599 98.6849 39.1562 98.112C38.7188 97.5338 38.1354 97.2448 37.4062 97.2448C36.6927 97.2448 36.1172 97.5286 35.6797 98.0963C35.2422 98.6641 35.0234 99.4766 35.0234 100.534ZM44.5703 96.2135V105.643C44.5703 107.268 43.8333 108.081 42.3594 108.081C42.0417 108.081 41.7474 108.034 41.4766 107.94V106.784C41.6432 106.826 41.862 106.846 42.1328 106.846C42.4557 106.846 42.7005 106.758 42.8672 106.581C43.0391 106.409 43.125 106.107 43.125 105.674V96.2135H44.5703ZM42.9766 93.9713C42.9766 93.7422 43.0469 93.5469 43.1875 93.3854C43.3333 93.2187 43.5443 93.1354 43.8203 93.1354C44.1016 93.1354 44.3151 93.2161 44.4609 93.3776C44.6068 93.5391 44.6797 93.737 44.6797 93.9713C44.6797 94.2057 44.6068 94.401 44.4609 94.5573C44.3151 94.7135 44.1016 94.7917 43.8203 94.7917C43.5391 94.7917 43.3281 94.7135 43.1875 94.5573C43.0469 94.401 42.9766 94.2057 42.9766 93.9713ZM50.4141 104.823C49.2682 104.823 48.3359 104.448 47.6172 103.698C46.8984 102.943 46.5391 101.935 46.5391 100.674V100.409C46.5391 99.5703 46.6979 98.8229 47.0156 98.1667C47.3385 97.5052 47.7865 96.9896 48.3594 96.6198C48.9375 96.2448 49.5625 96.0573 50.2344 96.0573C51.3333 96.0573 52.1875 96.4193 52.7969 97.1432C53.4062 97.8672 53.7109 98.9036 53.7109 100.253V100.854H47.9844C48.0052 101.687 48.2474 102.362 48.7109 102.878C49.1797 103.388 49.7734 103.643 50.4922 103.643C51.0026 103.643 51.4349 103.539 51.7891 103.331C52.1432 103.122 52.4531 102.846 52.7188 102.503L53.6016 103.19C52.8932 104.279 51.8307 104.823 50.4141 104.823ZM50.2344 97.2448C49.651 97.2448 49.1615 97.4583 48.7656 97.8854C48.3698 98.3073 48.125 98.901 48.0312 99.6667H52.2656V99.5573C52.224 98.8229 52.026 98.2552 51.6719 97.8542C51.3177 97.4479 50.8385 97.2448 50.2344 97.2448ZM58.7812 103.643C59.2969 103.643 59.7474 103.487 60.1328 103.174C60.5182 102.862 60.7318 102.471 60.7734 102.003H62.1406C62.1146 102.487 61.9479 102.948 61.6406 103.385C61.3333 103.823 60.9219 104.172 60.4062 104.432C59.8958 104.693 59.3542 104.823 58.7812 104.823C57.6302 104.823 56.7135 104.44 56.0312 103.674C55.3542 102.904 55.0156 101.852 55.0156 100.518V100.276C55.0156 99.4531 55.1667 98.7213 55.4688 98.0807C55.7708 97.4401 56.2031 96.9427 56.7656 96.5885C57.3333 96.2344 58.0026 96.0573 58.7734 96.0573C59.7214 96.0573 60.5078 96.3411 61.1328 96.9088C61.763 97.4766 62.099 98.2135 62.1406 99.1198H60.7734C60.7318 98.5729 60.5234 98.125 60.1484 97.776C59.7786 97.4219 59.3203 97.2448 58.7734 97.2448C58.0391 97.2448 57.4688 97.5104 57.0625 98.0417C56.6615 98.5677 56.4609 99.3307 56.4609 100.331V100.604C56.4609 101.578 56.6615 102.328 57.0625 102.854C57.4635 103.38 58.0365 103.643 58.7812 103.643ZM65.7266 94.1667V96.2135H67.3047V97.3307H65.7266V102.573C65.7266 102.911 65.7969 103.167 65.9375 103.339C66.0781 103.505 66.3177 103.589 66.6562 103.589C66.8229 103.589 67.0521 103.557 67.3438 103.495V104.667C66.9635 104.771 66.5938 104.823 66.2344 104.823C65.5885 104.823 65.1016 104.628 64.7734 104.237C64.4453 103.846 64.2812 103.292 64.2812 102.573V97.3307H62.7422V96.2135H64.2812V94.1667H65.7266ZM74.0469 92.5182L74.875 93.0807C74.3906 93.7422 74.1406 94.4557 74.125 95.2213V96.2838H72.6875V95.3776C72.6875 94.8463 72.8125 94.3203 73.0625 93.7995C73.3177 93.2786 73.6458 92.8516 74.0469 92.5182ZM76.5078 92.5182L77.3359 93.0807C76.8516 93.7422 76.6016 94.4557 76.5859 95.2213V96.2838H75.1484V95.3776C75.1484 94.8463 75.2734 94.3203 75.5234 93.7995C75.7786 93.2786 76.1068 92.8516 76.5078 92.5182ZM84.1953 101.698H79.4297L78.3594 104.667H76.8125L81.1562 93.2917H82.4688L86.8203 104.667H85.2812L84.1953 101.698ZM79.8828 100.464H83.75L81.8125 95.1432L79.8828 100.464ZM87.3828 96.4948L86.5625 95.9323C87.0469 95.2552 87.2969 94.5417 87.3125 93.7917V92.6667H88.7422V93.6823C88.737 94.2031 88.6068 94.7239 88.3516 95.2448C88.1016 95.7604 87.7786 96.1771 87.3828 96.4948ZM89.7812 96.4948L88.9609 95.9323C89.4453 95.2552 89.6953 94.5417 89.7109 93.7917V92.6667H91.1406V93.6823C91.1354 94.2031 91.0052 94.7239 90.75 95.2448C90.5 95.7604 90.1771 96.1771 89.7812 96.4948Z" fill="black"/>
<rect x="18" y="118.167" width="405" height="31" rx="3.5" fill="#DFEDFB"/>
<path d="M36.1875 135.057C36.0469 136.26 35.6016 137.19 34.8516 137.846C34.1068 138.497 33.1146 138.823 31.875 138.823C30.5312 138.823 29.4531 138.341 28.6406 137.378C27.8333 136.414 27.4297 135.125 27.4297 133.51V132.417C27.4297 131.359 27.6172 130.43 27.9922 129.628C28.3724 128.825 28.9089 128.211 29.6016 127.784C30.2943 127.352 31.0964 127.135 32.0078 127.135C33.2161 127.135 34.1849 127.474 34.9141 128.151C35.6432 128.823 36.0677 129.755 36.1875 130.948H34.6797C34.5495 130.042 34.2656 129.385 33.8281 128.979C33.3958 128.573 32.7891 128.37 32.0078 128.37C31.0495 128.37 30.2969 128.724 29.75 129.432C29.2083 130.141 28.9375 131.148 28.9375 132.456V133.557C28.9375 134.792 29.1953 135.773 29.7109 136.503C30.2266 137.232 30.9479 137.596 31.875 137.596C32.7083 137.596 33.3464 137.409 33.7891 137.034C34.237 136.654 34.5339 135.995 34.6797 135.057H36.1875ZM37.6328 134.362C37.6328 133.534 37.7943 132.789 38.1172 132.128C38.4453 131.466 38.8984 130.956 39.4766 130.596C40.0599 130.237 40.724 130.057 41.4688 130.057C42.6198 130.057 43.5495 130.456 44.2578 131.253C44.9714 132.049 45.3281 133.109 45.3281 134.432V134.534C45.3281 135.357 45.1693 136.096 44.8516 136.753C44.5391 137.404 44.0885 137.911 43.5 138.276C42.9167 138.641 42.2448 138.823 41.4844 138.823C40.3385 138.823 39.4089 138.424 38.6953 137.628C37.987 136.831 37.6328 135.776 37.6328 134.464V134.362ZM39.0859 134.534C39.0859 135.471 39.3021 136.224 39.7344 136.792C40.1719 137.359 40.7552 137.643 41.4844 137.643C42.2188 137.643 42.8021 137.357 43.2344 136.784C43.6667 136.206 43.8828 135.398 43.8828 134.362C43.8828 133.435 43.6615 132.685 43.2188 132.112C42.7812 131.534 42.1979 131.245 41.4688 131.245C40.7552 131.245 40.1797 131.529 39.7422 132.096C39.3047 132.664 39.0859 133.477 39.0859 134.534ZM48.5078 130.214L48.5547 131.276C49.2005 130.464 50.0443 130.057 51.0859 130.057C52.8724 130.057 53.7734 131.065 53.7891 133.081V138.667H52.3438V133.073C52.3385 132.464 52.1979 132.013 51.9219 131.721C51.651 131.43 51.2266 131.284 50.6484 131.284C50.1797 131.284 49.7682 131.409 49.4141 131.659C49.0599 131.909 48.7839 132.237 48.5859 132.643V138.667H47.1406V130.214H48.5078ZM57.9297 128.167V130.214H59.5078V131.331H57.9297V136.573C57.9297 136.911 58 137.167 58.1406 137.339C58.2812 137.505 58.5208 137.589 58.8594 137.589C59.026 137.589 59.2552 137.557 59.5469 137.495V138.667C59.1667 138.771 58.7969 138.823 58.4375 138.823C57.7917 138.823 57.3047 138.628 56.9766 138.237C56.6484 137.846 56.4844 137.292 56.4844 136.573V131.331H54.9453V130.214H56.4844V128.167H57.9297ZM64.7109 138.823C63.5651 138.823 62.6328 138.448 61.9141 137.698C61.1953 136.943 60.8359 135.935 60.8359 134.674V134.409C60.8359 133.57 60.9948 132.823 61.3125 132.167C61.6354 131.505 62.0833 130.99 62.6562 130.62C63.2344 130.245 63.8594 130.057 64.5312 130.057C65.6302 130.057 66.4844 130.419 67.0938 131.143C67.7031 131.867 68.0078 132.904 68.0078 134.253V134.854H62.2812C62.3021 135.687 62.5443 136.362 63.0078 136.878C63.4766 137.388 64.0703 137.643 64.7891 137.643C65.2995 137.643 65.7318 137.539 66.0859 137.331C66.4401 137.122 66.75 136.846 67.0156 136.503L67.8984 137.19C67.1901 138.279 66.1276 138.823 64.7109 138.823ZM64.5312 131.245C63.9479 131.245 63.4583 131.458 63.0625 131.885C62.6667 132.307 62.4219 132.901 62.3281 133.667H66.5625V133.557C66.5208 132.823 66.3229 132.255 65.9688 131.854C65.6146 131.448 65.1354 131.245 64.5312 131.245ZM71.0547 130.214L71.1016 131.276C71.7474 130.464 72.5911 130.057 73.6328 130.057C75.4193 130.057 76.3203 131.065 76.3359 133.081V138.667H74.8906V133.073C74.8854 132.464 74.7448 132.013 74.4688 131.721C74.1979 131.43 73.7734 131.284 73.1953 131.284C72.7266 131.284 72.3151 131.409 71.9609 131.659C71.6068 131.909 71.3307 132.237 71.1328 132.643V138.667H69.6875V130.214H71.0547ZM80.4766 128.167V130.214H82.0547V131.331H80.4766V136.573C80.4766 136.911 80.5469 137.167 80.6875 137.339C80.8281 137.505 81.0677 137.589 81.4062 137.589C81.5729 137.589 81.8021 137.557 82.0938 137.495V138.667C81.7135 138.771 81.3438 138.823 80.9844 138.823C80.3385 138.823 79.8516 138.628 79.5234 138.237C79.1953 137.846 79.0312 137.292 79.0312 136.573V131.331H77.4922V130.214H79.0312V128.167H80.4766ZM94.2266 135.698H89.4609L88.3906 138.667H86.8438L91.1875 127.292H92.5L96.8516 138.667H95.3125L94.2266 135.698ZM89.9141 134.464H93.7812L91.8438 129.143L89.9141 134.464ZM99.8828 134.214V138.667H98.3828V127.292H102.578C103.823 127.292 104.797 127.609 105.5 128.245C106.208 128.88 106.562 129.721 106.562 130.768C106.562 131.872 106.216 132.724 105.523 133.323C104.836 133.917 103.849 134.214 102.562 134.214H99.8828ZM99.8828 132.987H102.578C103.38 132.987 103.995 132.799 104.422 132.424C104.849 132.044 105.062 131.497 105.062 130.784C105.062 130.107 104.849 129.565 104.422 129.159C103.995 128.753 103.409 128.542 102.664 128.526H99.8828V132.987ZM110.086 138.667H108.586V127.292H110.086V138.667Z" fill="black"/>
<rect x="18" y="118.167" width="405" height="31" rx="3.5" stroke="#6C8EBF"/>
<rect x="18" y="159.167" width="405" height="31" rx="3.5" fill="#DFEDFB"/>
<path d="M31.1719 174.596C29.8854 174.227 28.9479 173.773 28.3594 173.237C27.776 172.695 27.4844 172.029 27.4844 171.237C27.4844 170.341 27.8411 169.602 28.5547 169.018C29.2734 168.43 30.2057 168.135 31.3516 168.135C32.1328 168.135 32.8281 168.286 33.4375 168.589C34.0521 168.891 34.526 169.307 34.8594 169.839C35.1979 170.37 35.3672 170.95 35.3672 171.581H33.8594C33.8594 170.893 33.6406 170.354 33.2031 169.964C32.7656 169.568 32.1484 169.37 31.3516 169.37C30.612 169.37 30.0339 169.534 29.6172 169.862C29.2057 170.185 29 170.635 29 171.214C29 171.677 29.1953 172.07 29.5859 172.393C29.9818 172.711 30.651 173.003 31.5938 173.268C32.5417 173.534 33.2812 173.828 33.8125 174.151C34.349 174.469 34.7448 174.841 35 175.268C35.2604 175.695 35.3906 176.198 35.3906 176.776C35.3906 177.698 35.0312 178.437 34.3125 178.995C33.5938 179.547 32.6328 179.823 31.4297 179.823C30.6484 179.823 29.9193 179.674 29.2422 179.378C28.5651 179.075 28.0417 178.664 27.6719 178.143C27.3073 177.622 27.125 177.031 27.125 176.37H28.6328C28.6328 177.057 28.8854 177.602 29.3906 178.003C29.901 178.398 30.5807 178.596 31.4297 178.596C32.2214 178.596 32.8281 178.435 33.25 178.112C33.6719 177.789 33.8828 177.349 33.8828 176.792C33.8828 176.234 33.6875 175.805 33.2969 175.503C32.9062 175.195 32.1979 174.893 31.1719 174.596ZM39.8594 177.549L41.8281 171.214H43.375L39.9766 180.971C39.4505 182.378 38.6146 183.081 37.4688 183.081L37.1953 183.057L36.6562 182.956V181.784L37.0469 181.815C37.5365 181.815 37.9167 181.716 38.1875 181.518C38.4635 181.32 38.6901 180.958 38.8672 180.432L39.1875 179.573L36.1719 171.214H37.75L39.8594 177.549ZM49.5938 177.424C49.5938 177.034 49.4453 176.732 49.1484 176.518C48.8568 176.299 48.3438 176.112 47.6094 175.956C46.8802 175.799 46.2995 175.612 45.8672 175.393C45.4401 175.174 45.1224 174.914 44.9141 174.612C44.7109 174.31 44.6094 173.95 44.6094 173.534C44.6094 172.841 44.901 172.255 45.4844 171.776C46.0729 171.297 46.8229 171.057 47.7344 171.057C48.6927 171.057 49.4688 171.305 50.0625 171.799C50.6615 172.294 50.9609 172.927 50.9609 173.698H49.5078C49.5078 173.302 49.3385 172.961 49 172.674C48.6667 172.388 48.2448 172.245 47.7344 172.245C47.2083 172.245 46.7969 172.359 46.5 172.589C46.2031 172.818 46.0547 173.117 46.0547 173.487C46.0547 173.836 46.1927 174.099 46.4688 174.276C46.7448 174.453 47.2422 174.622 47.9609 174.784C48.6849 174.945 49.2708 175.138 49.7188 175.362C50.1667 175.586 50.4974 175.857 50.7109 176.174C50.9297 176.487 51.0391 176.87 51.0391 177.323C51.0391 178.078 50.737 178.685 50.1328 179.143C49.5286 179.596 48.7448 179.823 47.7812 179.823C47.1042 179.823 46.5052 179.703 45.9844 179.464C45.4635 179.224 45.0547 178.891 44.7578 178.464C44.4661 178.031 44.3203 177.565 44.3203 177.065H45.7656C45.7917 177.549 45.9844 177.935 46.3438 178.221C46.7083 178.503 47.1875 178.643 47.7812 178.643C48.3281 178.643 48.7656 178.534 49.0938 178.315C49.4271 178.091 49.5938 177.794 49.5938 177.424ZM54.8828 169.167V171.214H56.4609V172.331H54.8828V177.573C54.8828 177.911 54.9531 178.167 55.0938 178.339C55.2344 178.505 55.474 178.589 55.8125 178.589C55.9792 178.589 56.2083 178.557 56.5 178.495V179.667C56.1198 179.771 55.75 179.823 55.3906 179.823C54.7448 179.823 54.2578 179.628 53.9297 179.237C53.6016 178.846 53.4375 178.292 53.4375 177.573V172.331H51.8984V171.214H53.4375V169.167H54.8828ZM61.6641 179.823C60.5182 179.823 59.5859 179.448 58.8672 178.698C58.1484 177.943 57.7891 176.935 57.7891 175.674V175.409C57.7891 174.57 57.9479 173.823 58.2656 173.167C58.5885 172.505 59.0365 171.99 59.6094 171.62C60.1875 171.245 60.8125 171.057 61.4844 171.057C62.5833 171.057 63.4375 171.419 64.0469 172.143C64.6562 172.867 64.9609 173.904 64.9609 175.253V175.854H59.2344C59.2552 176.687 59.4974 177.362 59.9609 177.878C60.4297 178.388 61.0234 178.643 61.7422 178.643C62.2526 178.643 62.6849 178.539 63.0391 178.331C63.3932 178.122 63.7031 177.846 63.9688 177.503L64.8516 178.19C64.1432 179.279 63.0807 179.823 61.6641 179.823ZM61.4844 172.245C60.901 172.245 60.4115 172.458 60.0156 172.885C59.6198 173.307 59.375 173.901 59.2812 174.667H63.5156V174.557C63.474 173.823 63.276 173.255 62.9219 172.854C62.5677 172.448 62.0885 172.245 61.4844 172.245ZM68 171.214L68.0391 172.151C68.6589 171.422 69.4948 171.057 70.5469 171.057C71.7292 171.057 72.5339 171.51 72.9609 172.417C73.2422 172.01 73.6068 171.682 74.0547 171.432C74.5078 171.182 75.0417 171.057 75.6562 171.057C77.5104 171.057 78.4531 172.039 78.4844 174.003V179.667H77.0391V174.089C77.0391 173.484 76.901 173.034 76.625 172.737C76.349 172.435 75.8854 172.284 75.2344 172.284C74.6979 172.284 74.2526 172.445 73.8984 172.768C73.5443 173.086 73.3385 173.516 73.2812 174.057V179.667H71.8281V174.128C71.8281 172.898 71.2266 172.284 70.0234 172.284C69.0755 172.284 68.4271 172.687 68.0781 173.495V179.667H66.6328V171.214H68ZM91.1484 176.698H86.3828L85.3125 179.667H83.7656L88.1094 168.292H89.4219L93.7734 179.667H92.2344L91.1484 176.698ZM86.8359 175.464H90.7031L88.7656 170.143L86.8359 175.464ZM96.8047 175.214V179.667H95.3047V168.292H99.5C100.745 168.292 101.719 168.609 102.422 169.245C103.13 169.88 103.484 170.721 103.484 171.768C103.484 172.872 103.138 173.724 102.445 174.323C101.758 174.917 100.771 175.214 99.4844 175.214H96.8047ZM96.8047 173.987H99.5C100.302 173.987 100.917 173.799 101.344 173.424C101.771 173.044 101.984 172.497 101.984 171.784C101.984 171.107 101.771 170.565 101.344 170.159C100.917 169.753 100.331 169.542 99.5859 169.526H96.8047V173.987ZM107.008 179.667H105.508V168.292H107.008V179.667Z" fill="black"/>
<rect x="18" y="159.167" width="405" height="31" rx="3.5" stroke="#6C8EBF"/>
<rect x="9" y="84.1667" width="424" height="116" rx="3.5" stroke="#666666"/>
<rect x="9" y="212.5" width="424" height="116" rx="3.5" fill="#F8F8F8"/>
<path d="M20.3203 228.547V233H18.8203V221.625H23.0156C24.2604 221.625 25.2344 221.943 25.9375 222.578C26.6458 223.214 27 224.055 27 225.102C27 226.206 26.6536 227.057 25.9609 227.656C25.2734 228.25 24.2865 228.547 23 228.547H20.3203ZM20.3203 227.32H23.0156C23.8177 227.32 24.4323 227.133 24.8594 226.758C25.2865 226.378 25.5 225.831 25.5 225.117C25.5 224.44 25.2865 223.898 24.8594 223.492C24.4323 223.086 23.8464 222.875 23.1016 222.859H20.3203V227.32ZM32.7734 225.844C32.5547 225.807 32.3177 225.789 32.0625 225.789C31.1146 225.789 30.4714 226.193 30.1328 227V233H28.6875V224.547H30.0938L30.1172 225.523C30.5911 224.768 31.263 224.391 32.1328 224.391C32.4141 224.391 32.6276 224.427 32.7734 224.5V225.844ZM33.5703 228.695C33.5703 227.867 33.7318 227.122 34.0547 226.461C34.3828 225.799 34.8359 225.289 35.4141 224.93C35.9974 224.57 36.6615 224.391 37.4062 224.391C38.5573 224.391 39.487 224.789 40.1953 225.586C40.9089 226.383 41.2656 227.443 41.2656 228.766V228.867C41.2656 229.69 41.1068 230.43 40.7891 231.086C40.4766 231.737 40.026 232.245 39.4375 232.609C38.8542 232.974 38.1823 233.156 37.4219 233.156C36.276 233.156 35.3464 232.758 34.6328 231.961C33.9245 231.164 33.5703 230.109 33.5703 228.797V228.695ZM35.0234 228.867C35.0234 229.805 35.2396 230.557 35.6719 231.125C36.1094 231.693 36.6927 231.977 37.4219 231.977C38.1562 231.977 38.7396 231.69 39.1719 231.117C39.6042 230.539 39.8203 229.732 39.8203 228.695C39.8203 227.768 39.599 227.018 39.1562 226.445C38.7188 225.867 38.1354 225.578 37.4062 225.578C36.6927 225.578 36.1172 225.862 35.6797 226.43C35.2422 226.997 35.0234 227.81 35.0234 228.867ZM44.5703 224.547V233.977C44.5703 235.602 43.8333 236.414 42.3594 236.414C42.0417 236.414 41.7474 236.367 41.4766 236.273V235.117C41.6432 235.159 41.862 235.18 42.1328 235.18C42.4557 235.18 42.7005 235.091 42.8672 234.914C43.0391 234.742 43.125 234.44 43.125 234.008V224.547H44.5703ZM42.9766 222.305C42.9766 222.076 43.0469 221.88 43.1875 221.719C43.3333 221.552 43.5443 221.469 43.8203 221.469C44.1016 221.469 44.3151 221.549 44.4609 221.711C44.6068 221.872 44.6797 222.07 44.6797 222.305C44.6797 222.539 44.6068 222.734 44.4609 222.891C44.3151 223.047 44.1016 223.125 43.8203 223.125C43.5391 223.125 43.3281 223.047 43.1875 222.891C43.0469 222.734 42.9766 222.539 42.9766 222.305ZM50.4141 233.156C49.2682 233.156 48.3359 232.781 47.6172 232.031C46.8984 231.276 46.5391 230.268 46.5391 229.008V228.742C46.5391 227.904 46.6979 227.156 47.0156 226.5C47.3385 225.839 47.7865 225.323 48.3594 224.953C48.9375 224.578 49.5625 224.391 50.2344 224.391C51.3333 224.391 52.1875 224.753 52.7969 225.477C53.4062 226.201 53.7109 227.237 53.7109 228.586V229.188H47.9844C48.0052 230.021 48.2474 230.695 48.7109 231.211C49.1797 231.721 49.7734 231.977 50.4922 231.977C51.0026 231.977 51.4349 231.872 51.7891 231.664C52.1432 231.456 52.4531 231.18 52.7188 230.836L53.6016 231.523C52.8932 232.612 51.8307 233.156 50.4141 233.156ZM50.2344 225.578C49.651 225.578 49.1615 225.792 48.7656 226.219C48.3698 226.641 48.125 227.234 48.0312 228H52.2656V227.891C52.224 227.156 52.026 226.589 51.6719 226.188C51.3177 225.781 50.8385 225.578 50.2344 225.578ZM58.7812 231.977C59.2969 231.977 59.7474 231.82 60.1328 231.508C60.5182 231.195 60.7318 230.805 60.7734 230.336H62.1406C62.1146 230.82 61.9479 231.281 61.6406 231.719C61.3333 232.156 60.9219 232.505 60.4062 232.766C59.8958 233.026 59.3542 233.156 58.7812 233.156C57.6302 233.156 56.7135 232.773 56.0312 232.008C55.3542 231.237 55.0156 230.185 55.0156 228.852V228.609C55.0156 227.786 55.1667 227.055 55.4688 226.414C55.7708 225.773 56.2031 225.276 56.7656 224.922C57.3333 224.568 58.0026 224.391 58.7734 224.391C59.7214 224.391 60.5078 224.674 61.1328 225.242C61.763 225.81 62.099 226.547 62.1406 227.453H60.7734C60.7318 226.906 60.5234 226.458 60.1484 226.109C59.7786 225.755 59.3203 225.578 58.7734 225.578C58.0391 225.578 57.4688 225.844 57.0625 226.375C56.6615 226.901 56.4609 227.664 56.4609 228.664V228.938C56.4609 229.911 56.6615 230.661 57.0625 231.188C57.4635 231.714 58.0365 231.977 58.7812 231.977ZM65.7266 222.5V224.547H67.3047V225.664H65.7266V230.906C65.7266 231.245 65.7969 231.5 65.9375 231.672C66.0781 231.839 66.3177 231.922 66.6562 231.922C66.8229 231.922 67.0521 231.891 67.3438 231.828V233C66.9635 233.104 66.5938 233.156 66.2344 233.156C65.5885 233.156 65.1016 232.961 64.7734 232.57C64.4453 232.18 64.2812 231.625 64.2812 230.906V225.664H62.7422V224.547H64.2812V222.5H65.7266ZM74.0469 220.852L74.875 221.414C74.3906 222.076 74.1406 222.789 74.125 223.555V224.617H72.6875V223.711C72.6875 223.18 72.8125 222.654 73.0625 222.133C73.3177 221.612 73.6458 221.185 74.0469 220.852ZM76.5078 220.852L77.3359 221.414C76.8516 222.076 76.6016 222.789 76.5859 223.555V224.617H75.1484V223.711C75.1484 223.18 75.2734 222.654 75.5234 222.133C75.7786 221.612 76.1068 221.185 76.5078 220.852ZM78.8516 233V221.625H82.5703C83.8047 221.625 84.7318 221.88 85.3516 222.391C85.9766 222.901 86.2891 223.656 86.2891 224.656C86.2891 225.188 86.138 225.659 85.8359 226.07C85.5339 226.477 85.1224 226.792 84.6016 227.016C85.2161 227.188 85.7005 227.516 86.0547 228C86.4141 228.479 86.5938 229.052 86.5938 229.719C86.5938 230.74 86.263 231.542 85.6016 232.125C84.9401 232.708 84.0052 233 82.7969 233H78.8516ZM80.3516 227.68V231.773H82.8281C83.526 231.773 84.0755 231.594 84.4766 231.234C84.8828 230.87 85.0859 230.37 85.0859 229.734C85.0859 228.365 84.3411 227.68 82.8516 227.68H80.3516ZM80.3516 226.477H82.6172C83.2734 226.477 83.7969 226.312 84.1875 225.984C84.5833 225.656 84.7812 225.211 84.7812 224.648C84.7812 224.023 84.599 223.57 84.2344 223.289C83.8698 223.003 83.3151 222.859 82.5703 222.859H80.3516V226.477ZM88.7891 224.828L87.9688 224.266C88.4531 223.589 88.7031 222.875 88.7188 222.125V221H90.1484V222.016C90.1432 222.536 90.013 223.057 89.7578 223.578C89.5078 224.094 89.1849 224.51 88.7891 224.828ZM91.1875 224.828L90.3672 224.266C90.8516 223.589 91.1016 222.875 91.1172 222.125V221H92.5469V222.016C92.5417 222.536 92.4115 223.057 92.1562 223.578C91.9062 224.094 91.5833 224.51 91.1875 224.828Z" fill="black"/>
<rect x="18" y="246.5" width="405" height="31" rx="3.5" fill="#DFEDFB"/>
<path d="M36.1875 263.391C36.0469 264.594 35.6016 265.523 34.8516 266.18C34.1068 266.831 33.1146 267.156 31.875 267.156C30.5312 267.156 29.4531 266.674 28.6406 265.711C27.8333 264.747 27.4297 263.458 27.4297 261.844V260.75C27.4297 259.693 27.6172 258.763 27.9922 257.961C28.3724 257.159 28.9089 256.544 29.6016 256.117C30.2943 255.685 31.0964 255.469 32.0078 255.469C33.2161 255.469 34.1849 255.807 34.9141 256.484C35.6432 257.156 36.0677 258.089 36.1875 259.281H34.6797C34.5495 258.375 34.2656 257.719 33.8281 257.312C33.3958 256.906 32.7891 256.703 32.0078 256.703C31.0495 256.703 30.2969 257.057 29.75 257.766C29.2083 258.474 28.9375 259.482 28.9375 260.789V261.891C28.9375 263.125 29.1953 264.107 29.7109 264.836C30.2266 265.565 30.9479 265.93 31.875 265.93C32.7083 265.93 33.3464 265.742 33.7891 265.367C34.237 264.987 34.5339 264.328 34.6797 263.391H36.1875ZM37.6328 262.695C37.6328 261.867 37.7943 261.122 38.1172 260.461C38.4453 259.799 38.8984 259.289 39.4766 258.93C40.0599 258.57 40.724 258.391 41.4688 258.391C42.6198 258.391 43.5495 258.789 44.2578 259.586C44.9714 260.383 45.3281 261.443 45.3281 262.766V262.867C45.3281 263.69 45.1693 264.43 44.8516 265.086C44.5391 265.737 44.0885 266.245 43.5 266.609C42.9167 266.974 42.2448 267.156 41.4844 267.156C40.3385 267.156 39.4089 266.758 38.6953 265.961C37.987 265.164 37.6328 264.109 37.6328 262.797V262.695ZM39.0859 262.867C39.0859 263.805 39.3021 264.557 39.7344 265.125C40.1719 265.693 40.7552 265.977 41.4844 265.977C42.2188 265.977 42.8021 265.69 43.2344 265.117C43.6667 264.539 43.8828 263.732 43.8828 262.695C43.8828 261.768 43.6615 261.018 43.2188 260.445C42.7812 259.867 42.1979 259.578 41.4688 259.578C40.7552 259.578 40.1797 259.862 39.7422 260.43C39.3047 260.997 39.0859 261.81 39.0859 262.867ZM48.5078 258.547L48.5547 259.609C49.2005 258.797 50.0443 258.391 51.0859 258.391C52.8724 258.391 53.7734 259.398 53.7891 261.414V267H52.3438V261.406C52.3385 260.797 52.1979 260.346 51.9219 260.055C51.651 259.763 51.2266 259.617 50.6484 259.617C50.1797 259.617 49.7682 259.742 49.4141 259.992C49.0599 260.242 48.7839 260.57 48.5859 260.977V267H47.1406V258.547H48.5078ZM57.9297 256.5V258.547H59.5078V259.664H57.9297V264.906C57.9297 265.245 58 265.5 58.1406 265.672C58.2812 265.839 58.5208 265.922 58.8594 265.922C59.026 265.922 59.2552 265.891 59.5469 265.828V267C59.1667 267.104 58.7969 267.156 58.4375 267.156C57.7917 267.156 57.3047 266.961 56.9766 266.57C56.6484 266.18 56.4844 265.625 56.4844 264.906V259.664H54.9453V258.547H56.4844V256.5H57.9297ZM64.7109 267.156C63.5651 267.156 62.6328 266.781 61.9141 266.031C61.1953 265.276 60.8359 264.268 60.8359 263.008V262.742C60.8359 261.904 60.9948 261.156 61.3125 260.5C61.6354 259.839 62.0833 259.323 62.6562 258.953C63.2344 258.578 63.8594 258.391 64.5312 258.391C65.6302 258.391 66.4844 258.753 67.0938 259.477C67.7031 260.201 68.0078 261.237 68.0078 262.586V263.188H62.2812C62.3021 264.021 62.5443 264.695 63.0078 265.211C63.4766 265.721 64.0703 265.977 64.7891 265.977C65.2995 265.977 65.7318 265.872 66.0859 265.664C66.4401 265.456 66.75 265.18 67.0156 264.836L67.8984 265.523C67.1901 266.612 66.1276 267.156 64.7109 267.156ZM64.5312 259.578C63.9479 259.578 63.4583 259.792 63.0625 260.219C62.6667 260.641 62.4219 261.234 62.3281 262H66.5625V261.891C66.5208 261.156 66.3229 260.589 65.9688 260.188C65.6146 259.781 65.1354 259.578 64.5312 259.578ZM71.0547 258.547L71.1016 259.609C71.7474 258.797 72.5911 258.391 73.6328 258.391C75.4193 258.391 76.3203 259.398 76.3359 261.414V267H74.8906V261.406C74.8854 260.797 74.7448 260.346 74.4688 260.055C74.1979 259.763 73.7734 259.617 73.1953 259.617C72.7266 259.617 72.3151 259.742 71.9609 259.992C71.6068 260.242 71.3307 260.57 71.1328 260.977V267H69.6875V258.547H71.0547ZM80.4766 256.5V258.547H82.0547V259.664H80.4766V264.906C80.4766 265.245 80.5469 265.5 80.6875 265.672C80.8281 265.839 81.0677 265.922 81.4062 265.922C81.5729 265.922 81.8021 265.891 82.0938 265.828V267C81.7135 267.104 81.3438 267.156 80.9844 267.156C80.3385 267.156 79.8516 266.961 79.5234 266.57C79.1953 266.18 79.0312 265.625 79.0312 264.906V259.664H77.4922V258.547H79.0312V256.5H80.4766ZM94.2266 264.031H89.4609L88.3906 267H86.8438L91.1875 255.625H92.5L96.8516 267H95.3125L94.2266 264.031ZM89.9141 262.797H93.7812L91.8438 257.477L89.9141 262.797ZM99.8828 262.547V267H98.3828V255.625H102.578C103.823 255.625 104.797 255.943 105.5 256.578C106.208 257.214 106.562 258.055 106.562 259.102C106.562 260.206 106.216 261.057 105.523 261.656C104.836 262.25 103.849 262.547 102.562 262.547H99.8828ZM99.8828 261.32H102.578C103.38 261.32 103.995 261.133 104.422 260.758C104.849 260.378 105.062 259.831 105.062 259.117C105.062 258.44 104.849 257.898 104.422 257.492C103.995 257.086 103.409 256.875 102.664 256.859H99.8828V261.32ZM110.086 267H108.586V255.625H110.086V267Z" fill="black"/>
<rect x="18" y="246.5" width="405" height="31" rx="3.5" stroke="#6C8EBF"/>
<rect x="18" y="287.5" width="405" height="31" rx="3.5" fill="#DFEDFB"/>
<path d="M31.1719 302.93C29.8854 302.56 28.9479 302.107 28.3594 301.57C27.776 301.029 27.4844 300.362 27.4844 299.57C27.4844 298.674 27.8411 297.935 28.5547 297.352C29.2734 296.763 30.2057 296.469 31.3516 296.469C32.1328 296.469 32.8281 296.62 33.4375 296.922C34.0521 297.224 34.526 297.641 34.8594 298.172C35.1979 298.703 35.3672 299.284 35.3672 299.914H33.8594C33.8594 299.227 33.6406 298.688 33.2031 298.297C32.7656 297.901 32.1484 297.703 31.3516 297.703C30.612 297.703 30.0339 297.867 29.6172 298.195C29.2057 298.518 29 298.969 29 299.547C29 300.01 29.1953 300.404 29.5859 300.727C29.9818 301.044 30.651 301.336 31.5938 301.602C32.5417 301.867 33.2812 302.161 33.8125 302.484C34.349 302.802 34.7448 303.174 35 303.602C35.2604 304.029 35.3906 304.531 35.3906 305.109C35.3906 306.031 35.0312 306.771 34.3125 307.328C33.5938 307.88 32.6328 308.156 31.4297 308.156C30.6484 308.156 29.9193 308.008 29.2422 307.711C28.5651 307.409 28.0417 306.997 27.6719 306.477C27.3073 305.956 27.125 305.365 27.125 304.703H28.6328C28.6328 305.391 28.8854 305.935 29.3906 306.336C29.901 306.732 30.5807 306.93 31.4297 306.93C32.2214 306.93 32.8281 306.768 33.25 306.445C33.6719 306.122 33.8828 305.682 33.8828 305.125C33.8828 304.568 33.6875 304.138 33.2969 303.836C32.9062 303.529 32.1979 303.227 31.1719 302.93ZM39.8594 305.883L41.8281 299.547H43.375L39.9766 309.305C39.4505 310.711 38.6146 311.414 37.4688 311.414L37.1953 311.391L36.6562 311.289V310.117L37.0469 310.148C37.5365 310.148 37.9167 310.049 38.1875 309.852C38.4635 309.654 38.6901 309.292 38.8672 308.766L39.1875 307.906L36.1719 299.547H37.75L39.8594 305.883ZM49.5938 305.758C49.5938 305.367 49.4453 305.065 49.1484 304.852C48.8568 304.633 48.3438 304.445 47.6094 304.289C46.8802 304.133 46.2995 303.945 45.8672 303.727C45.4401 303.508 45.1224 303.247 44.9141 302.945C44.7109 302.643 44.6094 302.284 44.6094 301.867C44.6094 301.174 44.901 300.589 45.4844 300.109C46.0729 299.63 46.8229 299.391 47.7344 299.391C48.6927 299.391 49.4688 299.638 50.0625 300.133C50.6615 300.628 50.9609 301.26 50.9609 302.031H49.5078C49.5078 301.635 49.3385 301.294 49 301.008C48.6667 300.721 48.2448 300.578 47.7344 300.578C47.2083 300.578 46.7969 300.693 46.5 300.922C46.2031 301.151 46.0547 301.451 46.0547 301.82C46.0547 302.169 46.1927 302.432 46.4688 302.609C46.7448 302.786 47.2422 302.956 47.9609 303.117C48.6849 303.279 49.2708 303.471 49.7188 303.695C50.1667 303.919 50.4974 304.19 50.7109 304.508C50.9297 304.82 51.0391 305.203 51.0391 305.656C51.0391 306.411 50.737 307.018 50.1328 307.477C49.5286 307.93 48.7448 308.156 47.7812 308.156C47.1042 308.156 46.5052 308.036 45.9844 307.797C45.4635 307.557 45.0547 307.224 44.7578 306.797C44.4661 306.365 44.3203 305.898 44.3203 305.398H45.7656C45.7917 305.883 45.9844 306.268 46.3438 306.555C46.7083 306.836 47.1875 306.977 47.7812 306.977C48.3281 306.977 48.7656 306.867 49.0938 306.648C49.4271 306.424 49.5938 306.128 49.5938 305.758ZM54.8828 297.5V299.547H56.4609V300.664H54.8828V305.906C54.8828 306.245 54.9531 306.5 55.0938 306.672C55.2344 306.839 55.474 306.922 55.8125 306.922C55.9792 306.922 56.2083 306.891 56.5 306.828V308C56.1198 308.104 55.75 308.156 55.3906 308.156C54.7448 308.156 54.2578 307.961 53.9297 307.57C53.6016 307.18 53.4375 306.625 53.4375 305.906V300.664H51.8984V299.547H53.4375V297.5H54.8828ZM61.6641 308.156C60.5182 308.156 59.5859 307.781 58.8672 307.031C58.1484 306.276 57.7891 305.268 57.7891 304.008V303.742C57.7891 302.904 57.9479 302.156 58.2656 301.5C58.5885 300.839 59.0365 300.323 59.6094 299.953C60.1875 299.578 60.8125 299.391 61.4844 299.391C62.5833 299.391 63.4375 299.753 64.0469 300.477C64.6562 301.201 64.9609 302.237 64.9609 303.586V304.188H59.2344C59.2552 305.021 59.4974 305.695 59.9609 306.211C60.4297 306.721 61.0234 306.977 61.7422 306.977C62.2526 306.977 62.6849 306.872 63.0391 306.664C63.3932 306.456 63.7031 306.18 63.9688 305.836L64.8516 306.523C64.1432 307.612 63.0807 308.156 61.6641 308.156ZM61.4844 300.578C60.901 300.578 60.4115 300.792 60.0156 301.219C59.6198 301.641 59.375 302.234 59.2812 303H63.5156V302.891C63.474 302.156 63.276 301.589 62.9219 301.188C62.5677 300.781 62.0885 300.578 61.4844 300.578ZM68 299.547L68.0391 300.484C68.6589 299.755 69.4948 299.391 70.5469 299.391C71.7292 299.391 72.5339 299.844 72.9609 300.75C73.2422 300.344 73.6068 300.016 74.0547 299.766C74.5078 299.516 75.0417 299.391 75.6562 299.391C77.5104 299.391 78.4531 300.372 78.4844 302.336V308H77.0391V302.422C77.0391 301.818 76.901 301.367 76.625 301.07C76.349 300.768 75.8854 300.617 75.2344 300.617C74.6979 300.617 74.2526 300.779 73.8984 301.102C73.5443 301.419 73.3385 301.849 73.2812 302.391V308H71.8281V302.461C71.8281 301.232 71.2266 300.617 70.0234 300.617C69.0755 300.617 68.4271 301.021 68.0781 301.828V308H66.6328V299.547H68ZM91.1484 305.031H86.3828L85.3125 308H83.7656L88.1094 296.625H89.4219L93.7734 308H92.2344L91.1484 305.031ZM86.8359 303.797H90.7031L88.7656 298.477L86.8359 303.797ZM96.8047 303.547V308H95.3047V296.625H99.5C100.745 296.625 101.719 296.943 102.422 297.578C103.13 298.214 103.484 299.055 103.484 300.102C103.484 301.206 103.138 302.057 102.445 302.656C101.758 303.25 100.771 303.547 99.4844 303.547H96.8047ZM96.8047 302.32H99.5C100.302 302.32 100.917 302.133 101.344 301.758C101.771 301.378 101.984 300.831 101.984 300.117C101.984 299.44 101.771 298.898 101.344 298.492C100.917 298.086 100.331 297.875 99.5859 297.859H96.8047V302.32ZM107.008 308H105.508V296.625H107.008V308Z" fill="black"/>
<rect x="18" y="287.5" width="405" height="31" rx="3.5" stroke="#6C8EBF"/>
<rect x="9" y="212.5" width="424" height="116" rx="3.5" stroke="#666666"/>
<rect x="0.5" y="0.5" width="441" height="338" rx="3.5" stroke="#09017B"/>
</svg>
